<?xml version="1.0" encoding="utf-8"?>
<!-- Generator: Adobe Illustrator 25.0.0, SVG Export Plug-In . SVG Version: 6.00 Build 0)  -->
<svg version="1.1" id="Слой_1" xmlns="http://www.w3.org/2000/svg" xmlns:xlink="http://www.w3.org/1999/xlink" x="0px" y="0px"
	 viewBox="0 0 100 100" style="enable-background:new 0 0 100 100;" xml:space="preserve">
<style type="text/css">
	.st0{fill:url(#SVGID_1_);}
	.st1{fill:url(#SVGID_2_);}
	.st2{opacity:0.4;fill:url(#SVGID_3_);}
	.st3{fill:url(#SVGID_4_);}
	.st4{fill:url(#SVGID_5_);}
	.st5{fill:url(#SVGID_6_);}
	.st6{fill:url(#SVGID_7_);}
	.st7{fill:url(#SVGID_8_);}
	.st8{fill:url(#SVGID_9_);}
	.st9{fill:url(#SVGID_10_);}
	.st10{fill:url(#SVGID_11_);}
</style>
<g>
	
		<radialGradient id="SVGID_1_" cx="-131.5382" cy="30.2709" r="59.7305" gradientTransform="matrix(-1 0 0 1 -74.3271 0)" gradientUnits="userSpaceOnUse">
		<stop  offset="0" style="stop-color:#FFF8C7"/>
		<stop  offset="0.1559" style="stop-color:#FFE436"/>
		<stop  offset="1" style="stop-color:#FE761C"/>
	</radialGradient>
	<path class="st0" d="M18.55,50c0,17.38,14.09,31.47,31.46,31.47c17.38,0,31.47-14.09,31.47-31.47c0-17.38-14.09-31.46-31.47-31.46
		C32.64,18.53,18.55,32.62,18.55,50z"/>
	<g>
		
			<radialGradient id="SVGID_2_" cx="1095.5106" cy="-1876.1488" r="8.966" gradientTransform="matrix(-0.8392 1.1536 -1.6186 -1.3126 -2055.0493 -3689.9971)" gradientUnits="userSpaceOnUse">
			<stop  offset="0" style="stop-color:#FFFFFF"/>
			<stop  offset="1" style="stop-color:#FFFFFF;stop-opacity:0"/>
		</radialGradient>
		<path class="st1" d="M54.81,46.76c-8.01-6.5-11.14-16.4-6.99-22.11c4.16-5.71,14.02-5.07,22.04,1.43
			c8.01,6.5,11.14,16.4,6.99,22.11C72.69,53.9,62.82,53.26,54.81,46.76z"/>
		
			<radialGradient id="SVGID_3_" cx="-2984.3201" cy="2912.6482" r="8.6515" gradientTransform="matrix(-1.1717 -1.1007 0.222 -0.7283 -4110.9922 -1097.0844)" gradientUnits="userSpaceOnUse">
			<stop  offset="0" style="stop-color:#FFFFFF"/>
			<stop  offset="1" style="stop-color:#FFFFFF;stop-opacity:0"/>
		</radialGradient>
		<path class="st2" d="M22.21,56.95c1.06-3.48,6.46-2.04,12.06,3.22c5.6,5.26,9.28,12.34,8.22,15.83
			c-1.06,3.48-6.46,2.04-12.06-3.22C24.83,67.51,21.15,60.43,22.21,56.95z"/>
	</g>
	<radialGradient id="SVGID_4_" cx="50.7099" cy="1.928" r="10.3931" gradientUnits="userSpaceOnUse">
		<stop  offset="0" style="stop-color:#FFF8C7"/>
		<stop  offset="0.1559" style="stop-color:#FFE436"/>
		<stop  offset="1" style="stop-color:#FE761C"/>
	</radialGradient>
	<path class="st3" d="M53.83,9.23c0,2.11-1.71,3.82-3.82,3.82l0,0c-2.11,0-3.82-1.71-3.82-3.82V3.82C46.2,1.71,47.91,0,50.02,0l0,0
		c2.11,0,3.82,1.71,3.82,3.82V9.23z"/>
	
		<radialGradient id="SVGID_5_" cx="450.9099" cy="-234.939" r="10.3934" gradientTransform="matrix(0.7071 -0.7071 0.7071 0.7071 -136.198 500.4805)" gradientUnits="userSpaceOnUse">
		<stop  offset="0" style="stop-color:#FFF8C7"/>
		<stop  offset="0.1559" style="stop-color:#FFE436"/>
		<stop  offset="1" style="stop-color:#FE761C"/>
	</radialGradient>
	<path class="st4" d="M23.89,18.47c1.49,1.49,1.49,3.91,0,5.4l0,0c-1.49,1.49-3.91,1.49-5.4,0l-3.83-3.83
		c-1.49-1.49-1.49-3.91,0-5.4l0,0c1.49-1.49,3.91-1.49,5.4,0L23.89,18.47z"/>
	
		<radialGradient id="SVGID_6_" cx="901.296" cy="-119.6332" r="10.393" gradientTransform="matrix(0 -1 1 0 121.5769 950.6016)" gradientUnits="userSpaceOnUse">
		<stop  offset="0" style="stop-color:#FFF8C7"/>
		<stop  offset="0.1559" style="stop-color:#FFE436"/>
		<stop  offset="1" style="stop-color:#FE761C"/>
	</radialGradient>
	<path class="st5" d="M9.25,46.18c2.11,0,3.82,1.71,3.82,3.82l0,0c0,2.11-1.71,3.82-3.82,3.82H3.83c-2.11,0-3.82-1.71-3.82-3.82l0,0
		c0-2.11,1.71-3.82,3.82-3.82H9.25z"/>
	
		<radialGradient id="SVGID_7_" cx="1138.3269" cy="280.5641" r="10.3935" gradientTransform="matrix(-0.7071 -0.7071 0.7071 -0.7071 622.0566 1086.7986)" gradientUnits="userSpaceOnUse">
		<stop  offset="0" style="stop-color:#FFF8C7"/>
		<stop  offset="0.1559" style="stop-color:#FFE436"/>
		<stop  offset="1" style="stop-color:#FE761C"/>
	</radialGradient>
	<path class="st6" d="M18.49,76.13c1.49-1.49,3.91-1.49,5.4,0l0,0c1.49,1.49,1.49,3.9,0,5.4l-3.83,3.83c-1.49,1.49-3.91,1.49-5.4,0
		l0,0c-1.49-1.49-1.49-3.91,0-5.4L18.49,76.13z"/>
	
		<radialGradient id="SVGID_8_" cx="1022.8549" cy="730.9534" r="10.3933" gradientTransform="matrix(-1 0 0 -1 1072.1758 829.0254)" gradientUnits="userSpaceOnUse">
		<stop  offset="0" style="stop-color:#FFF8C7"/>
		<stop  offset="0.1559" style="stop-color:#FFE436"/>
		<stop  offset="1" style="stop-color:#FE761C"/>
	</radialGradient>
	<path class="st7" d="M46.2,90.77c0-2.11,1.71-3.82,3.82-3.82l0,0c2.11,0,3.82,1.71,3.82,3.82l0,5.41c0,2.11-1.71,3.82-3.82,3.82
		l0,0c-2.11,0-3.82-1.71-3.82-3.82L46.2,90.77z"/>
	
		<radialGradient id="SVGID_9_" cx="622.8214" cy="967.9848" r="10.3936" gradientTransform="matrix(-0.7071 0.7071 -0.7071 -0.7071 1208.3767 328.5479)" gradientUnits="userSpaceOnUse">
		<stop  offset="0" style="stop-color:#FFF8C7"/>
		<stop  offset="0.1559" style="stop-color:#FFE436"/>
		<stop  offset="1" style="stop-color:#FE761C"/>
	</radialGradient>
	<path class="st8" d="M76.15,81.53c-1.49-1.49-1.49-3.91,0-5.4l0,0c1.49-1.49,3.9-1.49,5.4,0l3.83,3.83c1.49,1.49,1.49,3.91,0,5.4
		l0,0c-1.49,1.49-3.91,1.49-5.4,0L76.15,81.53z"/>
	
		<radialGradient id="SVGID_10_" cx="172.2675" cy="852.5169" r="10.393" gradientTransform="matrix(0 1 -1 0 950.6055 -121.5742)" gradientUnits="userSpaceOnUse">
		<stop  offset="0" style="stop-color:#FFF8C7"/>
		<stop  offset="0.1559" style="stop-color:#FFE436"/>
		<stop  offset="1" style="stop-color:#FE761C"/>
	</radialGradient>
	<path class="st9" d="M90.78,53.81c-2.11,0-3.82-1.71-3.82-3.82l0,0c0-2.11,1.71-3.82,3.82-3.82h5.41c2.11,0,3.82,1.71,3.82,3.81
		l0,0c0,2.11-1.71,3.82-3.82,3.82H90.78z"/>
	
		<radialGradient id="SVGID_11_" cx="-64.5982" cy="452.4817" r="10.3934" gradientTransform="matrix(0.7071 0.7071 -0.7071 0.7071 450.126 -257.7751)" gradientUnits="userSpaceOnUse">
		<stop  offset="0" style="stop-color:#FFF8C7"/>
		<stop  offset="0.1559" style="stop-color:#FFE436"/>
		<stop  offset="1" style="stop-color:#FE761C"/>
	</radialGradient>
	<path class="st10" d="M81.54,23.87c-1.49,1.49-3.91,1.49-5.4,0l0,0c-1.49-1.49-1.49-3.9,0-5.4l3.83-3.83c1.49-1.49,3.91-1.49,5.4,0
		l0,0c1.49,1.49,1.49,3.91,0,5.4L81.54,23.87z"/>
</g>
</svg>
