<?xml version="1.0" encoding="utf-8"?>
<!-- Generator: Adobe Illustrator 25.0.0, SVG Export Plug-In . SVG Version: 6.00 Build 0)  -->
<svg version="1.1" id="Слой_1" xmlns="http://www.w3.org/2000/svg" xmlns:xlink="http://www.w3.org/1999/xlink" x="0px" y="0px"
	 viewBox="0 0 100 100" style="enable-background:new 0 0 100 100;" xml:space="preserve">
<style type="text/css">
	.st0{fill:url(#SVGID_1_);}
	.st1{opacity:0.5;fill:#FFFFFF;}
	.st2{fill:url(#SVGID_2_);}
	.st3{fill:#B0B1B6;}
	.st4{fill:#5D5E61;}
	.st5{fill:url(#SVGID_3_);}
	.st6{opacity:0.4;fill:url(#SVGID_4_);}
</style>
<g>
	
		<radialGradient id="SVGID_1_" cx="-1909.6742" cy="18.6517" r="94.916" gradientTransform="matrix(1 0 0 1 1948.2391 0)" gradientUnits="userSpaceOnUse">
		<stop  offset="0" style="stop-color:#FCFCFC"/>
		<stop  offset="0.1559" style="stop-color:#F1EDF5"/>
		<stop  offset="1" style="stop-color:#9FA1A6"/>
	</radialGradient>
	<path class="st0" d="M100,50c0,27.61-22.39,50-50,50C22.39,100,0,77.61,0,50C0,22.39,22.39,0,50,0C77.61,0,100,22.39,100,50z"/>
	<path class="st1" d="M42.76,34.65c0,25.47,19.05,46.47,43.67,49.58c1.19-1.26,2.32-2.59,3.37-3.97c6.13-8.3,9.76-18.55,9.76-29.66
		c0-25.5-19.1-46.54-43.78-49.6C47.68,9.89,42.76,21.7,42.76,34.65z"/>
	<radialGradient id="SVGID_2_" cx="106.0681" cy="-12.4038" r="84.2484" gradientUnits="userSpaceOnUse">
		<stop  offset="0" style="stop-color:#FCFCFC"/>
		<stop  offset="0.1559" style="stop-color:#ADAAB0"/>
		<stop  offset="1" style="stop-color:#6B6D70"/>
	</radialGradient>
	<path class="st2" d="M56.22,0.4c-8.09,8.88-13.02,20.69-13.02,33.65c0,25.5,19.1,46.53,43.78,49.6C95.07,74.76,100,62.96,100,50
		C100,24.5,80.9,3.47,56.22,0.4z"/>
	<g>
		<path class="st3" d="M15.06,58.85c4.7-0.42,8.06-5.75,7.5-11.91c-0.55-6.15-4.81-10.8-9.51-10.37c-4.7,0.42-8.06,5.75-7.5,11.9
			C6.11,54.62,10.36,59.27,15.06,58.85z"/>
		<path class="st3" d="M10.99,63.32c-2.82,1.48-3.53,5.67-1.59,9.35c1.94,3.69,5.78,5.47,8.6,4c2.81-1.48,3.52-5.66,1.59-9.35
			C17.66,63.63,13.8,61.84,10.99,63.32z"/>
		<path class="st3" d="M22.14,58.88c-1.66,0.87-2.08,3.34-0.94,5.52c1.14,2.18,3.42,3.23,5.08,2.36c1.66-0.87,2.08-3.35,0.94-5.52
			C26.08,59.06,23.8,58.01,22.14,58.88z"/>
		<path class="st4" d="M96.18,51.81c-0.86-6.12-5.35-10.54-10.02-9.88c-4.67,0.66-7.75,6.15-6.89,12.27
			c0.86,6.12,5.35,10.54,10.02,9.88C93.96,63.42,97.05,57.92,96.18,51.81z"/>
		<path class="st4" d="M90,37.26c2.74-1.62,3.23-5.84,1.11-9.42c-2.12-3.58-6.05-5.17-8.79-3.55c-2.73,1.61-3.23,5.83-1.11,9.41
			C83.33,37.28,87.27,38.87,90,37.26z"/>
		<path class="st4" d="M79.75,36.69c-1.25-2.12-3.57-3.05-5.19-2.1c-1.61,0.95-1.91,3.45-0.66,5.56c1.25,2.12,3.58,3.06,5.19,2.1
			C80.7,41.3,81,38.81,79.75,36.69z"/>
	</g>
	<g>
		
			<radialGradient id="SVGID_3_" cx="268.809" cy="-2387.1257" r="14.2476" gradientTransform="matrix(1.1966 0.7767 1.0414 -1.8051 2189.7759 -4483.5698)" gradientUnits="userSpaceOnUse">
			<stop  offset="0" style="stop-color:#FFFFFF"/>
			<stop  offset="1" style="stop-color:#FFFFFF;stop-opacity:0"/>
		</radialGradient>
		<path class="st5" d="M42.53,45.28c8.19-14.21,7.21-30.67-2.21-36.78C30.9,2.39,16.63,8.95,8.43,23.15
			c-8.19,14.2-7.19,30.67,2.21,36.78C20.07,66.05,34.34,59.48,42.53,45.28z"/>
		
			<radialGradient id="SVGID_4_" cx="-4311.2744" cy="4472.2393" r="13.7487" gradientTransform="matrix(1.4619 -0.6688 0.0223 -0.7611 6276.8906 600.565)" gradientUnits="userSpaceOnUse">
			<stop  offset="0" style="stop-color:#FFFFFF"/>
			<stop  offset="1" style="stop-color:#FFFFFF;stop-opacity:0"/>
		</radialGradient>
		<path class="st6" d="M94.07,70.93c0.17-5.78-8.69-6.34-19.79-1.27c-11.1,5.08-20.23,13.88-20.41,19.66
			c-0.17,5.77,8.68,6.35,19.79,1.27C84.76,85.51,93.89,76.7,94.07,70.93z"/>
	</g>
</g>
</svg>
