<?xml version="1.0" encoding="utf-8"?>
<!-- Generator: Adobe Illustrator 25.0.0, SVG Export Plug-In . SVG Version: 6.00 Build 0)  -->
<svg version="1.1" id="Слой_1" xmlns="http://www.w3.org/2000/svg" xmlns:xlink="http://www.w3.org/1999/xlink" x="0px" y="0px"
	 viewBox="0 0 100 100" style="enable-background:new 0 0 100 100;" xml:space="preserve">
<style type="text/css">
	.st0{fill:url(#SVGID_1_);}
	.st1{fill:url(#SVGID_2_);}
	.st2{opacity:0.4;fill:url(#SVGID_3_);}
	.st3{fill:url(#SVGID_4_);}
	.st4{fill:url(#SVGID_5_);}
	.st5{fill:url(#SVGID_6_);}
	.st6{fill:url(#SVGID_7_);}
	.st7{fill:url(#SVGID_8_);}
	.st8{fill:url(#SVGID_9_);}
	.st9{fill:url(#SVGID_10_);}
	.st10{fill:url(#SVGID_11_);}
	.st11{fill:url(#SVGID_12_);}
	.st12{fill:url(#SVGID_13_);}
	.st13{fill:url(#SVGID_14_);}
	.st14{opacity:0.4;fill:url(#SVGID_15_);}
	.st15{opacity:0.2;fill:url(#SVGID_16_);}
</style>
<g>
	<g>
		
			<radialGradient id="SVGID_1_" cx="-141.7905" cy="30.5399" r="45.402" gradientTransform="matrix(-1 0 0 1 -74.3271 0)" gradientUnits="userSpaceOnUse">
			<stop  offset="0" style="stop-color:#FFF8C7"/>
			<stop  offset="0.1559" style="stop-color:#FFE436"/>
			<stop  offset="1" style="stop-color:#FE761C"/>
		</radialGradient>
		<path class="st0" d="M38.08,45.53c0,13.21,10.71,23.92,23.92,23.92c13.21,0,23.92-10.71,23.92-23.92
			c0-13.21-10.71-23.91-23.92-23.91C48.78,21.62,38.08,32.33,38.08,45.53z"/>
		<g>
			
				<radialGradient id="SVGID_2_" cx="1090.8643" cy="-1879.3142" r="6.8152" gradientTransform="matrix(-0.8392 1.1536 -1.6186 -1.3126 -2055.0493 -3689.9971)" gradientUnits="userSpaceOnUse">
				<stop  offset="0" style="stop-color:#FFFFFF"/>
				<stop  offset="1" style="stop-color:#FFFFFF;stop-opacity:0"/>
			</radialGradient>
			<path class="st1" d="M65.64,43.08c-6.09-4.95-8.47-12.47-5.31-16.81c3.16-4.34,10.66-3.85,16.75,1.09
				c6.09,4.94,8.47,12.47,5.31,16.81C79.23,48.5,71.73,48.01,65.64,43.08z"/>
			
				<radialGradient id="SVGID_3_" cx="-2993.3774" cy="2937.8921" r="6.5761" gradientTransform="matrix(-1.1717 -1.1007 0.222 -0.7283 -4110.9922 -1097.0844)" gradientUnits="userSpaceOnUse">
				<stop  offset="0" style="stop-color:#FFFFFF"/>
				<stop  offset="1" style="stop-color:#FFFFFF;stop-opacity:0"/>
			</radialGradient>
			<path class="st2" d="M40.85,50.82c0.81-2.64,4.91-1.55,9.16,2.45c4.26,4,7.05,9.38,6.25,12.03c-0.8,2.64-4.91,1.55-9.16-2.45
				C42.85,58.85,40.05,53.46,40.85,50.82z"/>
		</g>
		<radialGradient id="SVGID_4_" cx="62.5218" cy="8.9961" r="7.8996" gradientUnits="userSpaceOnUse">
			<stop  offset="0" style="stop-color:#FFF8C7"/>
			<stop  offset="0.1559" style="stop-color:#FFE436"/>
			<stop  offset="1" style="stop-color:#FE761C"/>
		</radialGradient>
		<path class="st3" d="M64.89,14.55c0,1.6-1.3,2.9-2.9,2.9l0,0c-1.6,0-2.9-1.3-2.9-2.9v-4.12c0-1.6,1.3-2.9,2.9-2.9l0,0
			c1.6,0,2.9,1.3,2.9,2.9V14.55z"/>
		
			<radialGradient id="SVGID_5_" cx="462.3688" cy="-218.094" r="7.8999" gradientTransform="matrix(0.7071 -0.7071 0.7071 0.7071 -136.198 500.4805)" gradientUnits="userSpaceOnUse">
			<stop  offset="0" style="stop-color:#FFF8C7"/>
			<stop  offset="0.1559" style="stop-color:#FFE436"/>
			<stop  offset="1" style="stop-color:#FE761C"/>
		</radialGradient>
		<path class="st4" d="M42.13,21.57c1.13,1.13,1.13,2.97,0,4.1l0,0c-1.13,1.13-2.97,1.13-4.1,0l-2.91-2.91
			c-1.13-1.13-1.13-2.97,0-4.1l0,0c1.13-1.13,2.97-1.13,4.1,0L42.13,21.57z"/>
		
			<radialGradient id="SVGID_6_" cx="905.5928" cy="-96.1242" r="7.9004" gradientTransform="matrix(0 -1 1 0 121.5769 950.6016)" gradientUnits="userSpaceOnUse">
			<stop  offset="0" style="stop-color:#FFF8C7"/>
			<stop  offset="0.1559" style="stop-color:#FFE436"/>
			<stop  offset="1" style="stop-color:#FE761C"/>
		</radialGradient>
		<path class="st5" d="M31,42.64c1.6,0,2.9,1.3,2.9,2.9l0,0c0,1.6-1.3,2.9-2.9,2.9h-4.12c-1.6,0-2.9-1.3-2.9-2.9l0,0
			c0-1.6,1.3-2.9,2.9-2.9H31z"/>
		
			<radialGradient id="SVGID_7_" cx="1132.8469" cy="303.7216" r="7.9005" gradientTransform="matrix(-0.7071 -0.7071 0.7071 -0.7071 622.0566 1086.7986)" gradientUnits="userSpaceOnUse">
			<stop  offset="0" style="stop-color:#FFF8C7"/>
			<stop  offset="0.1559" style="stop-color:#FFE436"/>
			<stop  offset="1" style="stop-color:#FE761C"/>
		</radialGradient>
		<path class="st6" d="M38.03,65.4c1.13-1.13,2.97-1.13,4.1,0l0,0c1.13,1.13,1.13,2.97,0,4.1l-2.91,2.91c-1.13,1.13-2.97,1.13-4.1,0
			l0,0c-1.13-1.13-1.13-2.97,0-4.1L38.03,65.4z"/>
		
			<radialGradient id="SVGID_8_" cx="1010.71" cy="746.9484" r="7.8996" gradientTransform="matrix(-1 0 0 -1 1072.1758 829.0254)" gradientUnits="userSpaceOnUse">
			<stop  offset="0" style="stop-color:#FFF8C7"/>
			<stop  offset="0.1559" style="stop-color:#FFE436"/>
			<stop  offset="1" style="stop-color:#FE761C"/>
		</radialGradient>
		<path class="st7" d="M59.09,76.52c0-1.6,1.3-2.9,2.9-2.9l0,0c1.6,0,2.9,1.3,2.9,2.9l0,4.12c0,1.6-1.3,2.9-2.9,2.9l0,0
			c-1.6,0-2.9-1.3-2.9-2.9L59.09,76.52z"/>
		
			<radialGradient id="SVGID_9_" cx="611.0286" cy="974.2033" r="7.9" gradientTransform="matrix(-0.7071 0.7071 -0.7071 -0.7071 1208.3767 328.5479)" gradientUnits="userSpaceOnUse">
			<stop  offset="0" style="stop-color:#FFF8C7"/>
			<stop  offset="0.1559" style="stop-color:#FFE436"/>
			<stop  offset="1" style="stop-color:#FE761C"/>
		</radialGradient>
		<path class="st8" d="M81.86,69.5c-1.13-1.13-1.13-2.97,0-4.1l0,0c1.13-1.13,2.97-1.13,4.1,0l2.91,2.91c1.13,1.13,1.13,2.97,0,4.1
			l0,0c-1.13,1.13-2.97,1.13-4.1,0L81.86,69.5z"/>
		
			<radialGradient id="SVGID_10_" cx="167.6378" cy="852.0709" r="7.8994" gradientTransform="matrix(0 1 -1 0 950.6055 -121.5742)" gradientUnits="userSpaceOnUse">
			<stop  offset="0" style="stop-color:#FFF8C7"/>
			<stop  offset="0.1559" style="stop-color:#FFE436"/>
			<stop  offset="1" style="stop-color:#FE761C"/>
		</radialGradient>
		<path class="st9" d="M92.98,48.44c-1.6,0-2.9-1.3-2.9-2.9l0,0c0-1.6,1.3-2.9,2.9-2.9h4.12c1.6,0,2.9,1.3,2.9,2.9l0,0
			c0,1.6-1.3,2.9-2.9,2.9H92.98z"/>
		
			<radialGradient id="SVGID_11_" cx="-59.4509" cy="452.3879" r="7.8999" gradientTransform="matrix(0.7071 0.7071 -0.7071 0.7071 450.126 -257.7751)" gradientUnits="userSpaceOnUse">
			<stop  offset="0" style="stop-color:#FFF8C7"/>
			<stop  offset="0.1559" style="stop-color:#FFE436"/>
			<stop  offset="1" style="stop-color:#FE761C"/>
		</radialGradient>
		<path class="st10" d="M85.96,25.67c-1.13,1.13-2.97,1.13-4.1,0l0,0c-1.13-1.13-1.13-2.97,0-4.1l2.91-2.91
			c1.13-1.13,2.97-1.13,4.1,0l0,0c1.13,1.13,1.13,2.97,0,4.1L85.96,25.67z"/>
	</g>
	<g>
		
			<radialGradient id="SVGID_12_" cx="1365.5546" cy="38.3107" r="77.9792" gradientTransform="matrix(-1 0 0 1 1385.1875 0)" gradientUnits="userSpaceOnUse">
			<stop  offset="0" style="stop-color:#FFFFFF"/>
			<stop  offset="0.198" style="stop-color:#D9F7FF"/>
			<stop  offset="1" style="stop-color:#89C0F5"/>
		</radialGradient>
		<path class="st11" d="M31.41,29.69c14.79,0,27.19,10.23,30.52,24c2.69-1.3,5.69-2.05,8.88-2.05c11.28,0,20.43,9.15,20.43,20.43
			c0,11.28-9.15,20.43-20.43,20.43h-39.4C14.06,92.5,0,78.44,0,61.1C0,43.75,14.06,29.69,31.41,29.69z"/>
		<radialGradient id="SVGID_13_" cx="55.8281" cy="45.4017" r="44.5487" gradientUnits="userSpaceOnUse">
			<stop  offset="0" style="stop-color:#FFE436"/>
			<stop  offset="0.0198" style="stop-color:#FFDF35;stop-opacity:0.9742"/>
			<stop  offset="0.1739" style="stop-color:#FFB92C;stop-opacity:0.7739"/>
			<stop  offset="0.3276" style="stop-color:#FE9C25;stop-opacity:0.5739"/>
			<stop  offset="0.4791" style="stop-color:#FE8720;stop-opacity:0.3768"/>
			<stop  offset="0.6274" style="stop-color:#FE7A1D;stop-opacity:0.1839"/>
			<stop  offset="0.7688" style="stop-color:#FE761C;stop-opacity:0"/>
		</radialGradient>
		<path class="st12" d="M31.41,29.69c14.79,0,27.19,10.23,30.52,24c2.69-1.3,5.69-2.05,8.88-2.05c11.28,0,20.43,9.15,20.43,20.43
			c0,11.28-9.15,20.43-20.43,20.43h-39.4C14.06,92.5,0,78.44,0,61.1C0,43.75,14.06,29.69,31.41,29.69z"/>
		
			<radialGradient id="SVGID_14_" cx="526.2769" cy="-2386.126" r="9.1504" gradientTransform="matrix(0.8392 1.1536 1.6186 -1.3126 3440.2368 -3689.9971)" gradientUnits="userSpaceOnUse">
			<stop  offset="0" style="stop-color:#FFFFFF"/>
			<stop  offset="1" style="stop-color:#FFFFFF;stop-opacity:0"/>
		</radialGradient>
		<path class="st13" d="M27.39,59.7c8.18-6.63,11.37-16.74,7.13-22.56c-4.24-5.83-14.31-5.18-22.49,1.45
			C3.85,45.22,0.66,55.33,4.9,61.16C9.14,66.99,19.21,66.33,27.39,59.7z"/>
		
			<radialGradient id="SVGID_15_" cx="553.291" cy="-2372.5706" r="5.029" gradientTransform="matrix(0.8392 1.1536 1.6186 -1.3126 3440.2368 -3689.9971)" gradientUnits="userSpaceOnUse">
			<stop  offset="0" style="stop-color:#FFFFFF"/>
			<stop  offset="1" style="stop-color:#FFFFFF;stop-opacity:0"/>
		</radialGradient>
		<path class="st14" d="M68.54,68.32c4.49-3.65,6.25-9.2,3.92-12.4c-2.33-3.21-7.86-2.84-12.36,0.8c-4.49,3.65-6.24,9.2-3.92,12.4
			C58.51,72.32,64.04,71.96,68.54,68.32z"/>
		
			<radialGradient id="SVGID_16_" cx="1471.7313" cy="118.909" r="5.2584" gradientTransform="matrix(-0.7056 -0.4583 -1.3993 1.8312 1285.8608 537.7463)" gradientUnits="userSpaceOnUse">
			<stop  offset="0" style="stop-color:#FFFFFF"/>
			<stop  offset="1" style="stop-color:#FFFFFF;stop-opacity:0"/>
		</radialGradient>
		<path class="st15" d="M78.51,76.26c4.95-5,10.05-6.95,11.41-4.37c1.35,2.58-1.55,8.73-6.49,13.74c-4.95,5-10.05,6.96-11.41,4.37
			C70.66,87.41,73.56,81.26,78.51,76.26z"/>
	</g>
</g>
</svg>
