<?xml version="1.0" encoding="utf-8"?>
<!-- Generator: Adobe Illustrator 25.0.0, SVG Export Plug-In . SVG Version: 6.00 Build 0)  -->
<svg version="1.1" id="Слой_1" xmlns="http://www.w3.org/2000/svg" xmlns:xlink="http://www.w3.org/1999/xlink" x="0px" y="0px"
	 viewBox="0 0 100 100" style="enable-background:new 0 0 100 100;" xml:space="preserve">
<style type="text/css">
	.st0{fill:url(#SVGID_1_);}
	.st1{fill:#B0B1B6;}
	.st2{fill:url(#SVGID_2_);}
	.st3{opacity:0.4;fill:url(#SVGID_3_);}
	.st4{fill:url(#SVGID_4_);}
	.st5{opacity:0.5;fill:url(#SVGID_5_);}
	.st6{opacity:0.3;fill:url(#SVGID_6_);}
	.st7{opacity:0.2;fill:url(#SVGID_7_);}
</style>
<g>
	<g>
		
			<radialGradient id="SVGID_1_" cx="-147.3112" cy="21.4845" r="66.4914" gradientTransform="matrix(-1 0 0 1 -74.3271 0)" gradientUnits="userSpaceOnUse">
			<stop  offset="0" style="stop-color:#FCFCFC"/>
			<stop  offset="0.1559" style="stop-color:#F1EDF5"/>
			<stop  offset="1" style="stop-color:#9FA1A6"/>
		</radialGradient>
		<path class="st0" d="M29.95,43.45c0,19.34,15.68,35.02,35.03,35.02c19.34,0,35.03-15.68,35.03-35.02
			C100,24.1,84.32,8.42,64.97,8.42C45.63,8.42,29.95,24.1,29.95,43.45z"/>
		<g>
			<path class="st1" d="M40.5,49.64c3.29-0.3,5.64-4.03,5.26-8.34c-0.38-4.31-3.37-7.56-6.66-7.27c-3.29,0.3-5.64,4.03-5.25,8.34
				C34.23,46.68,37.21,49.94,40.5,49.64z"/>
			<path class="st1" d="M37.65,52.77c-1.97,1.04-2.47,3.97-1.12,6.55c1.36,2.58,4.05,3.83,6.03,2.8c1.97-1.03,2.47-3.97,1.11-6.55
				C42.32,53,39.62,51.74,37.65,52.77z"/>
			<path class="st1" d="M45.46,49.66c-1.17,0.61-1.46,2.34-0.66,3.87c0.8,1.52,2.39,2.27,3.56,1.66c1.16-0.61,1.46-2.34,0.66-3.87
				C48.22,49.79,46.62,49.05,45.46,49.66z"/>
			<path class="st1" d="M97.32,44.71c-0.6-4.29-3.75-7.38-7.02-6.92c-3.27,0.46-5.43,4.31-4.83,8.59c0.6,4.28,3.75,7.38,7.02,6.92
				C95.77,52.84,97.93,49,97.32,44.71z"/>
			<path class="st1" d="M93,34.52c1.92-1.13,2.27-4.09,0.78-6.6c-1.48-2.51-4.24-3.62-6.16-2.49c-1.91,1.13-2.27,4.09-0.78,6.6
				C88.32,34.54,91.08,35.65,93,34.52z"/>
			<path class="st1" d="M85.81,34.12c-0.88-1.48-2.5-2.14-3.64-1.47c-1.13,0.67-1.34,2.41-0.46,3.9c0.88,1.49,2.51,2.14,3.64,1.47
				C86.48,37.35,86.69,35.61,85.81,34.12z"/>
		</g>
		<g>
			
				<radialGradient id="SVGID_2_" cx="1083.87" cy="-1880.2169" r="9.9808" gradientTransform="matrix(-0.8392 1.1536 -1.6186 -1.3126 -2055.0493 -3689.9971)" gradientUnits="userSpaceOnUse">
				<stop  offset="0" style="stop-color:#FFFFFF"/>
				<stop  offset="1" style="stop-color:#FFFFFF;stop-opacity:0"/>
			</radialGradient>
			<path class="st2" d="M70.31,39.84c-8.92-7.24-12.4-18.26-7.78-24.61c4.63-6.36,15.61-5.65,24.53,1.59
				c8.92,7.24,12.4,18.26,7.77,24.61C90.21,47.79,79.23,47.08,70.31,39.84z"/>
			
				<radialGradient id="SVGID_3_" cx="-2991.969" cy="2930.6455" r="9.6317" gradientTransform="matrix(-1.1717 -1.1007 0.222 -0.7283 -4110.9922 -1097.0844)" gradientUnits="userSpaceOnUse">
				<stop  offset="0" style="stop-color:#FFFFFF"/>
				<stop  offset="1" style="stop-color:#FFFFFF;stop-opacity:0"/>
			</radialGradient>
			<path class="st3" d="M34.02,51.19c1.18-3.87,7.19-2.27,13.43,3.59c6.23,5.86,10.32,13.74,9.15,17.62
				c-1.18,3.87-7.18,2.27-13.42-3.59C36.93,62.95,32.84,55.06,34.02,51.19z"/>
		</g>
	</g>
	<g>
		
			<radialGradient id="SVGID_4_" cx="1366.2478" cy="39.3018" r="75.2268" gradientTransform="matrix(-1 0 0 1 1385.1875 0)" gradientUnits="userSpaceOnUse">
			<stop  offset="0" style="stop-color:#BAD0D6"/>
			<stop  offset="0.198" style="stop-color:#9BBAC2"/>
			<stop  offset="1" style="stop-color:#5D8BB8"/>
		</radialGradient>
		<path class="st4" d="M30.3,30.98c14.27,0,26.23,9.87,29.44,23.16c2.59-1.26,5.49-1.98,8.57-1.98c10.89,0,19.71,8.82,19.71,19.71
			c0,10.89-8.82,19.71-19.71,19.71H30.3C13.56,91.58,0,78.02,0,61.28C0,44.55,13.56,30.98,30.3,30.98z"/>
		
			<radialGradient id="SVGID_5_" cx="526.3007" cy="-2386.5684" r="8.827" gradientTransform="matrix(0.8392 1.1536 1.6186 -1.3126 3440.2368 -3689.9971)" gradientUnits="userSpaceOnUse">
			<stop  offset="0" style="stop-color:#FFFFFF"/>
			<stop  offset="1" style="stop-color:#FFFFFF;stop-opacity:0"/>
		</radialGradient>
		<path class="st5" d="M26.42,59.94c7.89-6.4,10.97-16.14,6.88-21.77c-4.09-5.63-13.81-4.99-21.7,1.4
			c-7.89,6.4-10.97,16.15-6.88,21.77C8.81,66.97,18.53,66.33,26.42,59.94z"/>
		
			<radialGradient id="SVGID_6_" cx="552.3611" cy="-2373.4919" r="4.8515" gradientTransform="matrix(0.8392 1.1536 1.6186 -1.3126 3440.2368 -3689.9971)" gradientUnits="userSpaceOnUse">
			<stop  offset="0" style="stop-color:#FFFFFF"/>
			<stop  offset="1" style="stop-color:#FFFFFF;stop-opacity:0"/>
		</radialGradient>
		<path class="st6" d="M66.12,68.25c4.33-3.52,6.03-8.87,3.78-11.96c-2.25-3.09-7.58-2.75-11.93,0.77
			c-4.33,3.52-6.03,8.87-3.78,11.96C56.44,72.11,61.78,71.76,66.12,68.25z"/>
		
			<radialGradient id="SVGID_7_" cx="1475.124" cy="118.8584" r="5.0728" gradientTransform="matrix(-0.7056 -0.4583 -1.3993 1.8312 1285.3259 538.88)" gradientUnits="userSpaceOnUse">
			<stop  offset="0" style="stop-color:#FFFFFF"/>
			<stop  offset="1" style="stop-color:#FFFFFF;stop-opacity:0"/>
		</radialGradient>
		<path class="st7" d="M75.74,75.91c4.77-4.82,9.69-6.71,11.01-4.21c1.31,2.49-1.5,8.43-6.27,13.25c-4.77,4.82-9.7,6.71-11.01,4.21
			C68.17,86.66,70.97,80.74,75.74,75.91z"/>
	</g>
</g>
</svg>
