<?xml version="1.0" encoding="utf-8"?>
<!-- Generator: Adobe Illustrator 25.0.0, SVG Export Plug-In . SVG Version: 6.00 Build 0)  -->
<svg version="1.1" id="Слой_1" xmlns="http://www.w3.org/2000/svg" xmlns:xlink="http://www.w3.org/1999/xlink" x="0px" y="0px"
	 viewBox="0 0 100 100" style="enable-background:new 0 0 100 100;" xml:space="preserve">
<style type="text/css">
	.st0{fill:url(#SVGID_1_);}
	.st1{fill:url(#SVGID_2_);}
	.st2{opacity:0.4;fill:url(#SVGID_3_);}
	.st3{opacity:0.2;fill:url(#SVGID_4_);}
</style>
<g>
	
		<radialGradient id="SVGID_1_" cx="1363.6696" cy="25.039" r="85.4659" gradientTransform="matrix(-1 0 0 1 1385.1875 0)" gradientUnits="userSpaceOnUse">
		<stop  offset="0" style="stop-color:#FFFFFF"/>
		<stop  offset="0.198" style="stop-color:#D9F7FF"/>
		<stop  offset="1" style="stop-color:#89C0F5"/>
	</radialGradient>
	<path class="st0" d="M34.42,15.59c16.21,0,29.8,11.21,33.45,26.31c2.95-1.43,6.24-2.25,9.73-2.25c12.37,0,22.39,10.03,22.39,22.39
		c0,12.37-10.03,22.39-22.39,22.39H34.42C15.41,84.43,0,69.02,0,50.01S15.41,15.59,34.42,15.59z"/>
	
		<radialGradient id="SVGID_2_" cx="520.4444" cy="-2381.9329" r="10.029" gradientTransform="matrix(0.8392 1.1536 1.6186 -1.3126 3440.2368 -3689.9971)" gradientUnits="userSpaceOnUse">
		<stop  offset="0" style="stop-color:#FFFFFF"/>
		<stop  offset="1" style="stop-color:#FFFFFF;stop-opacity:0"/>
	</radialGradient>
	<path class="st1" d="M30.01,48.48c8.96-7.27,12.46-18.34,7.82-24.73c-4.65-6.39-15.68-5.67-24.65,1.59
		C4.22,32.62,0.72,43.69,5.37,50.08C10.02,56.47,21.05,55.75,30.01,48.48z"/>
	
		<radialGradient id="SVGID_3_" cx="550.0519" cy="-2367.0762" r="5.5117" gradientTransform="matrix(0.8392 1.1536 1.6186 -1.3126 3440.2368 -3689.9971)" gradientUnits="userSpaceOnUse">
		<stop  offset="0" style="stop-color:#FFFFFF"/>
		<stop  offset="1" style="stop-color:#FFFFFF;stop-opacity:0"/>
	</radialGradient>
	<path class="st2" d="M75.12,57.93c4.92-4,6.85-10.08,4.3-13.59c-2.56-3.51-8.62-3.12-13.55,0.88c-4.92,4-6.85,10.08-4.29,13.59
		C64.13,62.31,70.19,61.92,75.12,57.93z"/>
	
		<radialGradient id="SVGID_4_" cx="1464.5262" cy="105.6009" r="5.7632" gradientTransform="matrix(-0.7056 -0.4583 -1.3993 1.8312 1269.9285 549.6345)" gradientUnits="userSpaceOnUse">
		<stop  offset="0" style="stop-color:#FFFFFF"/>
		<stop  offset="1" style="stop-color:#FFFFFF;stop-opacity:0"/>
	</radialGradient>
	<path class="st3" d="M86.05,66.63c5.42-5.48,11.01-7.62,12.5-4.79c1.48,2.83-1.7,9.57-7.12,15.05c-5.42,5.48-11.02,7.62-12.5,4.79
		C77.44,78.85,80.63,72.11,86.05,66.63z"/>
</g>
</svg>
