<?xml version="1.0" encoding="utf-8"?>
<!-- Generator: Adobe Illustrator 25.0.0, SVG Export Plug-In . SVG Version: 6.00 Build 0)  -->
<svg version="1.1" id="Слой_1" xmlns="http://www.w3.org/2000/svg" xmlns:xlink="http://www.w3.org/1999/xlink" x="0px" y="0px"
	 viewBox="0 0 100 100" style="enable-background:new 0 0 100 100;" xml:space="preserve">
<style type="text/css">
	.st0{fill:url(#SVGID_1_);}
	.st1{opacity:0.5;fill:url(#SVGID_2_);}
	.st2{opacity:0.3;fill:url(#SVGID_3_);}
	.st3{opacity:0.2;fill:url(#SVGID_4_);}
	.st4{fill:url(#SVGID_5_);}
	.st5{fill:url(#SVGID_6_);}
	.st6{opacity:0.4;fill:url(#SVGID_7_);}
	.st7{opacity:0.2;fill:url(#SVGID_8_);}
</style>
<g>
	<g>
		
			<radialGradient id="SVGID_1_" cx="1348.0295" cy="22.57" r="68.4345" gradientTransform="matrix(-1 0 0 1 1385.1875 0)" gradientUnits="userSpaceOnUse">
			<stop  offset="0" style="stop-color:#BAD0D6"/>
			<stop  offset="0.198" style="stop-color:#9BBAC2"/>
			<stop  offset="1" style="stop-color:#5D8BB8"/>
		</radialGradient>
		<path class="st0" d="M47.49,15c12.98,0,23.86,8.98,26.79,21.06c2.36-1.14,4.99-1.8,7.79-1.8c9.9,0,17.93,8.03,17.93,17.93
			c0,9.9-8.03,17.93-17.93,17.93H47.49c-15.22,0-27.56-12.34-27.56-27.56C19.93,27.34,32.27,15,47.49,15z"/>
		
			<radialGradient id="SVGID_2_" cx="524.7162" cy="-2374.4951" r="8.0303" gradientTransform="matrix(0.8392 1.1536 1.6186 -1.3126 3440.2368 -3689.9971)" gradientUnits="userSpaceOnUse">
			<stop  offset="0" style="stop-color:#FFFFFF"/>
			<stop  offset="1" style="stop-color:#FFFFFF;stop-opacity:0"/>
		</radialGradient>
		<path class="st1" d="M43.96,41.34c7.17-5.82,9.98-14.69,6.26-19.8C46.5,16.42,37.66,17,30.48,22.81
			c-7.17,5.82-9.97,14.69-6.26,19.8C27.95,47.74,36.78,47.16,43.96,41.34z"/>
		
			<radialGradient id="SVGID_3_" cx="548.4233" cy="-2362.5994" r="4.4136" gradientTransform="matrix(0.8392 1.1536 1.6186 -1.3126 3440.2368 -3689.9971)" gradientUnits="userSpaceOnUse">
			<stop  offset="0" style="stop-color:#FFFFFF"/>
			<stop  offset="1" style="stop-color:#FFFFFF;stop-opacity:0"/>
		</radialGradient>
		<path class="st2" d="M80.08,48.9c3.94-3.2,5.48-8.07,3.44-10.88c-2.05-2.81-6.9-2.5-10.85,0.7c-3.94,3.2-5.48,8.07-3.44,10.88
			C71.28,52.42,76.13,52.1,80.08,48.9z"/>
		
			<radialGradient id="SVGID_4_" cx="1464.1918" cy="90.153" r="4.6148" gradientTransform="matrix(-0.7056 -0.4583 -1.3993 1.8312 1250.321 565.9891)" gradientUnits="userSpaceOnUse">
			<stop  offset="0" style="stop-color:#FFFFFF"/>
			<stop  offset="1" style="stop-color:#FFFFFF;stop-opacity:0"/>
		</radialGradient>
		<path class="st3" d="M88.83,55.87c4.34-4.39,8.82-6.1,10.01-3.83c1.19,2.27-1.36,7.67-5.7,12.06c-4.34,4.39-8.82,6.1-10.01,3.83
			C81.94,65.66,84.49,60.26,88.83,55.87z"/>
	</g>
	<g>
		
			<radialGradient id="SVGID_5_" cx="1367.9578" cy="37.4721" r="68.4335" gradientTransform="matrix(-1 0 0 1 1385.1875 0)" gradientUnits="userSpaceOnUse">
			<stop  offset="0" style="stop-color:#FFFFFF"/>
			<stop  offset="0.198" style="stop-color:#D9F7FF"/>
			<stop  offset="1" style="stop-color:#89C0F5"/>
		</radialGradient>
		<path class="st4" d="M27.56,29.91c12.98,0,23.86,8.98,26.78,21.06c2.36-1.14,5-1.8,7.79-1.8c9.9,0,17.93,8.03,17.93,17.93
			s-8.03,17.93-17.93,17.93H27.56C12.34,85.03,0,72.69,0,57.47S12.34,29.91,27.56,29.91z"/>
		
			<radialGradient id="SVGID_6_" cx="524.0303" cy="-2386.4509" r="8.0302" gradientTransform="matrix(0.8392 1.1536 1.6186 -1.3126 3440.2368 -3689.9971)" gradientUnits="userSpaceOnUse">
			<stop  offset="0" style="stop-color:#FFFFFF"/>
			<stop  offset="1" style="stop-color:#FFFFFF;stop-opacity:0"/>
		</radialGradient>
		<path class="st5" d="M24.03,56.24c7.18-5.82,9.98-14.69,6.26-19.8c-3.72-5.12-12.56-4.54-19.74,1.28
			c-7.17,5.82-9.97,14.69-6.26,19.8C8.02,62.64,16.86,62.06,24.03,56.24z"/>
		
			<radialGradient id="SVGID_7_" cx="547.7377" cy="-2374.5544" r="4.413" gradientTransform="matrix(0.8392 1.1536 1.6186 -1.3126 3440.2368 -3689.9971)" gradientUnits="userSpaceOnUse">
			<stop  offset="0" style="stop-color:#FFFFFF"/>
			<stop  offset="1" style="stop-color:#FFFFFF;stop-opacity:0"/>
		</radialGradient>
		<path class="st6" d="M60.15,63.8c3.94-3.2,5.48-8.07,3.44-10.88c-2.05-2.81-6.9-2.5-10.85,0.7c-3.94,3.2-5.48,8.07-3.44,10.88
			C51.35,67.32,56.2,67,60.15,63.8z"/>
		
			<radialGradient id="SVGID_8_" cx="1484.3129" cy="113.2986" r="4.6147" gradientTransform="matrix(-0.7056 -0.4583 -1.3993 1.8312 1276.9783 547.7286)" gradientUnits="userSpaceOnUse">
			<stop  offset="0" style="stop-color:#FFFFFF"/>
			<stop  offset="1" style="stop-color:#FFFFFF;stop-opacity:0"/>
		</radialGradient>
		<path class="st7" d="M68.9,70.78c4.34-4.39,8.82-6.1,10.01-3.83c1.19,2.27-1.36,7.67-5.7,12.06c-4.34,4.39-8.82,6.1-10.01,3.83
			C62.01,80.56,64.56,75.16,68.9,70.78z"/>
	</g>
</g>
</svg>
