<?xml version="1.0" encoding="utf-8"?>
<!-- Generator: Adobe Illustrator 25.0.0, SVG Export Plug-In . SVG Version: 6.00 Build 0)  -->
<svg version="1.1" id="Слой_1" xmlns="http://www.w3.org/2000/svg" xmlns:xlink="http://www.w3.org/1999/xlink" x="0px" y="0px"
	 viewBox="0 0 100 100" style="enable-background:new 0 0 100 100;" xml:space="preserve">
<style type="text/css">
	.st0{fill:url(#SVGID_1_);}
	.st1{opacity:0.5;fill:url(#SVGID_2_);}
	.st2{opacity:0.3;fill:url(#SVGID_3_);}
	.st3{opacity:0.2;fill:url(#SVGID_4_);}
	.st4{fill:url(#SVGID_5_);}
	.st5{fill:url(#SVGID_6_);}
	.st6{opacity:0.4;fill:url(#SVGID_7_);}
	.st7{opacity:0.2;fill:url(#SVGID_8_);}
	.st8{fill:url(#SVGID_9_);}
	.st9{fill:url(#SVGID_10_);}
	.st10{fill:url(#SVGID_11_);}
	.st11{fill:url(#SVGID_12_);}
	.st12{fill:url(#SVGID_13_);}
	.st13{fill:url(#SVGID_14_);}
	.st14{fill:url(#SVGID_15_);}
	.st15{fill:url(#SVGID_16_);}
	.st16{fill:url(#SVGID_17_);}
	.st17{fill:url(#SVGID_18_);}
</style>
<g>
	<g>
		<g>
			
				<radialGradient id="SVGID_1_" cx="1348.0297" cy="14.2301" r="68.4346" gradientTransform="matrix(-1 0 0 1 1385.1875 0)" gradientUnits="userSpaceOnUse">
				<stop  offset="0" style="stop-color:#BAD0D6"/>
				<stop  offset="0.198" style="stop-color:#9BBAC2"/>
				<stop  offset="1" style="stop-color:#5D8BB8"/>
			</radialGradient>
			<path class="st0" d="M47.49,6.66c12.98,0,23.86,8.98,26.79,21.06c2.36-1.14,4.99-1.8,7.79-1.8c9.9,0,17.93,8.03,17.93,17.93
				c0,9.9-8.03,17.93-17.93,17.93H47.49c-15.22,0-27.56-12.34-27.56-27.56C19.93,19,32.27,6.66,47.49,6.66z"/>
			
				<radialGradient id="SVGID_2_" cx="520.1693" cy="-2372.1377" r="8.0303" gradientTransform="matrix(0.8392 1.1536 1.6186 -1.3126 3440.2368 -3689.9971)" gradientUnits="userSpaceOnUse">
				<stop  offset="0" style="stop-color:#FFFFFF"/>
				<stop  offset="1" style="stop-color:#FFFFFF;stop-opacity:0"/>
			</radialGradient>
			<path class="st1" d="M43.96,33c7.17-5.82,9.98-14.69,6.26-19.8c-3.72-5.12-12.56-4.54-19.74,1.28
				c-7.17,5.82-9.97,14.69-6.26,19.8C27.95,39.4,36.78,38.82,43.96,33z"/>
			
				<radialGradient id="SVGID_3_" cx="543.8764" cy="-2360.2419" r="4.4137" gradientTransform="matrix(0.8392 1.1536 1.6186 -1.3126 3440.2368 -3689.9971)" gradientUnits="userSpaceOnUse">
				<stop  offset="0" style="stop-color:#FFFFFF"/>
				<stop  offset="1" style="stop-color:#FFFFFF;stop-opacity:0"/>
			</radialGradient>
			<path class="st2" d="M80.08,40.56c3.94-3.2,5.48-8.07,3.44-10.88c-2.05-2.81-6.9-2.5-10.85,0.7c-3.94,3.2-5.48,8.07-3.44,10.88
				C71.28,44.08,76.13,43.76,80.08,40.56z"/>
			
				<radialGradient id="SVGID_4_" cx="1465.7864" cy="79.5517" r="4.6148" gradientTransform="matrix(-0.7056 -0.4583 -1.3993 1.8312 1236.6123 577.7933)" gradientUnits="userSpaceOnUse">
				<stop  offset="0" style="stop-color:#FFFFFF"/>
				<stop  offset="1" style="stop-color:#FFFFFF;stop-opacity:0"/>
			</radialGradient>
			<path class="st3" d="M88.83,47.53c4.34-4.39,8.82-6.1,10.01-3.83c1.19,2.27-1.36,7.67-5.7,12.06c-4.34,4.39-8.82,6.1-10.01,3.83
				C81.94,57.32,84.49,51.92,88.83,47.53z"/>
		</g>
		<g>
			
				<radialGradient id="SVGID_5_" cx="1367.9578" cy="29.1322" r="68.4336" gradientTransform="matrix(-1 0 0 1 1385.1875 0)" gradientUnits="userSpaceOnUse">
				<stop  offset="0" style="stop-color:#FFFFFF"/>
				<stop  offset="0.198" style="stop-color:#D9F7FF"/>
				<stop  offset="1" style="stop-color:#89C0F5"/>
			</radialGradient>
			<path class="st4" d="M27.56,21.57c12.98,0,23.86,8.98,26.78,21.06c2.36-1.14,5-1.8,7.79-1.8c9.9,0,17.93,8.03,17.93,17.93
				s-8.03,17.93-17.93,17.93H27.56C12.34,76.69,0,64.35,0,49.13S12.34,21.57,27.56,21.57z"/>
			
				<radialGradient id="SVGID_6_" cx="519.4834" cy="-2384.0935" r="8.0302" gradientTransform="matrix(0.8392 1.1536 1.6186 -1.3126 3440.2368 -3689.9971)" gradientUnits="userSpaceOnUse">
				<stop  offset="0" style="stop-color:#FFFFFF"/>
				<stop  offset="1" style="stop-color:#FFFFFF;stop-opacity:0"/>
			</radialGradient>
			<path class="st5" d="M24.03,47.9c7.18-5.82,9.98-14.69,6.26-19.8c-3.72-5.12-12.56-4.54-19.74,1.28
				C3.38,35.2,0.58,44.07,4.3,49.18C8.02,54.3,16.86,53.72,24.03,47.9z"/>
			
				<radialGradient id="SVGID_7_" cx="543.1907" cy="-2372.197" r="4.413" gradientTransform="matrix(0.8392 1.1536 1.6186 -1.3126 3440.2368 -3689.9971)" gradientUnits="userSpaceOnUse">
				<stop  offset="0" style="stop-color:#FFFFFF"/>
				<stop  offset="1" style="stop-color:#FFFFFF;stop-opacity:0"/>
			</radialGradient>
			<path class="st6" d="M60.15,55.46c3.94-3.2,5.48-8.07,3.44-10.88c-2.05-2.81-6.9-2.5-10.85,0.7c-3.94,3.2-5.48,8.07-3.44,10.88
				C51.35,58.98,56.2,58.66,60.15,55.46z"/>
			
				<radialGradient id="SVGID_8_" cx="1485.9075" cy="102.6974" r="4.6147" gradientTransform="matrix(-0.7056 -0.4583 -1.3993 1.8312 1263.2697 559.5327)" gradientUnits="userSpaceOnUse">
				<stop  offset="0" style="stop-color:#FFFFFF"/>
				<stop  offset="1" style="stop-color:#FFFFFF;stop-opacity:0"/>
			</radialGradient>
			<path class="st7" d="M68.9,62.44c4.34-4.39,8.82-6.1,10.01-3.83c1.19,2.27-1.36,7.67-5.7,12.06c-4.34,4.39-8.82,6.1-10.01,3.83
				C62.01,72.22,64.56,66.82,68.9,62.44z"/>
		</g>
	</g>
	<g>
		<g>
			
				<radialGradient id="SVGID_9_" cx="-250.1485" cy="8.6931" r="9.603" gradientTransform="matrix(0.866 0.5 -0.5 0.866 241.0088 207.5015)" gradientUnits="userSpaceOnUse">
				<stop  offset="0" style="stop-color:#D4F6FF"/>
				<stop  offset="0.198" style="stop-color:#D9F7FF"/>
				<stop  offset="1" style="stop-color:#89C0F5"/>
			</radialGradient>
			<path class="st8" d="M25.38,90.86c-1.1,1.91-3.54,2.56-5.45,1.46c-1.91-1.1-2.56-3.54-1.46-5.45c1.1-1.91,7.92-5.73,7.92-5.73
				S26.48,88.95,25.38,90.86z"/>
			
				<radialGradient id="SVGID_10_" cx="1218.1948" cy="-1746.645" r="1.5044" gradientTransform="matrix(-1.3036 0.5794 -0.7454 -1.946 306.6301 -4015.4641)" gradientUnits="userSpaceOnUse">
				<stop  offset="0" style="stop-color:#FFFFFF"/>
				<stop  offset="1" style="stop-color:#FFFFFF;stop-opacity:0"/>
			</radialGradient>
			<path class="st9" d="M18.58,90.2c-0.62-1.62-0.24-3.32,0.84-3.8c1.08-0.48,2.46,0.44,3.08,2.06c0.62,1.62,0.24,3.32-0.84,3.8
				C20.58,92.74,19.2,91.82,18.58,90.2z"/>
		</g>
		<g>
			
				<radialGradient id="SVGID_11_" cx="-231.1058" cy="-2.3026" r="9.6031" gradientTransform="matrix(0.866 0.5 -0.5 0.866 241.0088 207.5015)" gradientUnits="userSpaceOnUse">
				<stop  offset="0" style="stop-color:#D4F6FF"/>
				<stop  offset="0.198" style="stop-color:#D9F7FF"/>
				<stop  offset="1" style="stop-color:#89C0F5"/>
			</radialGradient>
			<path class="st10" d="M47.37,90.86c-1.1,1.91-3.54,2.56-5.45,1.46c-1.91-1.1-2.56-3.54-1.46-5.45c1.1-1.91,7.92-5.73,7.92-5.73
				S48.47,88.95,47.37,90.86z"/>
			
				<radialGradient id="SVGID_12_" cx="1203.7806" cy="-1750.9366" r="1.504" gradientTransform="matrix(-1.3036 0.5794 -0.7454 -1.946 306.6301 -4015.4641)" gradientUnits="userSpaceOnUse">
				<stop  offset="0" style="stop-color:#FFFFFF"/>
				<stop  offset="1" style="stop-color:#FFFFFF;stop-opacity:0"/>
			</radialGradient>
			<path class="st11" d="M40.57,90.2c-0.62-1.62-0.24-3.32,0.84-3.8c1.08-0.48,2.46,0.44,3.08,2.06c0.62,1.62,0.24,3.32-0.84,3.8
				C42.57,92.74,41.19,91.82,40.57,90.2z"/>
		</g>
		<g>
			
				<radialGradient id="SVGID_13_" cx="-212.0613" cy="-13.298" r="9.603" gradientTransform="matrix(0.866 0.5 -0.5 0.866 241.0088 207.5015)" gradientUnits="userSpaceOnUse">
				<stop  offset="0" style="stop-color:#D4F6FF"/>
				<stop  offset="0.198" style="stop-color:#D9F7FF"/>
				<stop  offset="1" style="stop-color:#89C0F5"/>
			</radialGradient>
			<path class="st12" d="M69.36,90.86c-1.1,1.91-3.54,2.56-5.45,1.46c-1.91-1.1-2.56-3.54-1.46-5.45c1.1-1.91,7.92-5.73,7.92-5.73
				S70.46,88.95,69.36,90.86z"/>
			
				<radialGradient id="SVGID_14_" cx="1189.3658" cy="-1755.2285" r="1.504" gradientTransform="matrix(-1.3036 0.5794 -0.7454 -1.946 306.6301 -4015.4641)" gradientUnits="userSpaceOnUse">
				<stop  offset="0" style="stop-color:#FFFFFF"/>
				<stop  offset="1" style="stop-color:#FFFFFF;stop-opacity:0"/>
			</radialGradient>
			<path class="st13" d="M62.56,90.2c-0.62-1.62-0.24-3.32,0.84-3.8c1.08-0.48,2.46,0.44,3.08,2.06c0.62,1.62,0.24,3.32-0.84,3.8
				C64.56,92.74,63.18,91.82,62.56,90.2z"/>
		</g>
	</g>
	<g>
		<g>
			
				<radialGradient id="SVGID_15_" cx="-245.5847" cy="-7.6293" r="13.6523" gradientTransform="matrix(0.866 0.5 -0.5 0.866 241.0088 207.5015)" gradientUnits="userSpaceOnUse">
				<stop  offset="0" style="stop-color:#D4F6FF"/>
				<stop  offset="0.198" style="stop-color:#D9F7FF"/>
				<stop  offset="1" style="stop-color:#89C0F5"/>
			</radialGradient>
			<path class="st14" d="M39.74,79.39c-1.57,2.71-5.04,3.64-7.75,2.08c-2.71-1.57-3.64-5.04-2.08-7.75
				c1.57-2.71,11.26-8.15,11.26-8.15S41.31,76.68,39.74,79.39z"/>
			
				<radialGradient id="SVGID_16_" cx="1207.0717" cy="-1743.7299" r="2.1384" gradientTransform="matrix(-1.3036 0.5794 -0.7454 -1.946 306.6301 -4015.4641)" gradientUnits="userSpaceOnUse">
				<stop  offset="0" style="stop-color:#FFFFFF"/>
				<stop  offset="1" style="stop-color:#FFFFFF;stop-opacity:0"/>
			</radialGradient>
			<path class="st15" d="M30.08,78.45c-0.88-2.3-0.35-4.71,1.19-5.4c1.54-0.69,3.5,0.62,4.38,2.92c0.88,2.3,0.34,4.72-1.19,5.4
				C32.92,82.06,30.96,80.75,30.08,78.45z"/>
		</g>
		<g>
			
				<radialGradient id="SVGID_17_" cx="-225.0363" cy="-19.4948" r="13.6515" gradientTransform="matrix(0.866 0.5 -0.5 0.866 241.0088 207.5015)" gradientUnits="userSpaceOnUse">
				<stop  offset="0" style="stop-color:#D4F6FF"/>
				<stop  offset="0.198" style="stop-color:#D9F7FF"/>
				<stop  offset="1" style="stop-color:#89C0F5"/>
			</radialGradient>
			<path class="st16" d="M63.47,79.39c-1.57,2.71-5.04,3.64-7.75,2.08c-2.71-1.57-3.64-5.04-2.08-7.75
				c1.57-2.71,11.26-8.15,11.26-8.15S65.04,76.68,63.47,79.39z"/>
			
				<radialGradient id="SVGID_18_" cx="1191.5176" cy="-1748.361" r="2.1379" gradientTransform="matrix(-1.3036 0.5794 -0.7454 -1.946 306.6301 -4015.4641)" gradientUnits="userSpaceOnUse">
				<stop  offset="0" style="stop-color:#FFFFFF"/>
				<stop  offset="1" style="stop-color:#FFFFFF;stop-opacity:0"/>
			</radialGradient>
			<path class="st17" d="M53.81,78.45c-0.88-2.3-0.35-4.71,1.19-5.4c1.54-0.69,3.5,0.62,4.38,2.92c0.88,2.3,0.35,4.72-1.19,5.4
				C56.65,82.06,54.69,80.75,53.81,78.45z"/>
		</g>
	</g>
</g>
</svg>
