<?xml version="1.0" encoding="utf-8"?>
<!-- Generator: Adobe Illustrator 25.0.0, SVG Export Plug-In . SVG Version: 6.00 Build 0)  -->
<svg version="1.1" id="Слой_1" xmlns="http://www.w3.org/2000/svg" xmlns:xlink="http://www.w3.org/1999/xlink" x="0px" y="0px"
	 viewBox="0 0 100 100" style="enable-background:new 0 0 100 100;" xml:space="preserve">
<style type="text/css">
	.st0{fill:url(#SVGID_1_);}
	.st1{fill:url(#SVGID_2_);}
	.st2{opacity:0.4;fill:url(#SVGID_3_);}
	.st3{fill:url(#SVGID_4_);}
	.st4{fill:url(#SVGID_5_);}
	.st5{fill:url(#SVGID_6_);}
	.st6{fill:url(#SVGID_7_);}
	.st7{fill:url(#SVGID_8_);}
	.st8{fill:url(#SVGID_9_);}
	.st9{fill:url(#SVGID_10_);}
	.st10{fill:url(#SVGID_11_);}
	.st11{fill:url(#SVGID_12_);}
	.st12{fill:url(#SVGID_13_);}
	.st13{fill:url(#SVGID_14_);}
	.st14{opacity:0.4;fill:url(#SVGID_15_);}
	.st15{opacity:0.2;fill:url(#SVGID_16_);}
	.st16{fill:url(#SVGID_17_);}
	.st17{fill:url(#SVGID_18_);}
	.st18{fill:url(#SVGID_19_);}
	.st19{opacity:0.4;fill:url(#SVGID_20_);}
	.st20{opacity:0.2;fill:url(#SVGID_21_);}
	.st21{fill:url(#SVGID_22_);}
	.st22{fill:url(#SVGID_23_);}
	.st23{fill:url(#SVGID_24_);}
	.st24{fill:url(#SVGID_25_);}
	.st25{fill:url(#SVGID_26_);}
	.st26{fill:url(#SVGID_27_);}
	.st27{fill:url(#SVGID_28_);}
	.st28{fill:url(#SVGID_29_);}
</style>
<g>
	<g>
		<g>
			
				<radialGradient id="SVGID_1_" cx="-125.1549" cy="24.504" r="48.3508" gradientTransform="matrix(-1 0 0 1 -74.3271 0)" gradientUnits="userSpaceOnUse">
				<stop  offset="0" style="stop-color:#FFF8C7"/>
				<stop  offset="0.1559" style="stop-color:#FFE436"/>
				<stop  offset="1" style="stop-color:#FE761C"/>
			</radialGradient>
			<path class="st0" d="M19.53,40.47c0,14.07,11.4,25.47,25.47,25.47c14.07,0,25.47-11.4,25.47-25.47C70.47,26.41,59.07,15,45,15
				C30.94,15,19.53,26.41,19.53,40.47z"/>
			<g>
				
					<radialGradient id="SVGID_2_" cx="1094.9814" cy="-1871.328" r="7.2578" gradientTransform="matrix(-0.8392 1.1536 -1.6186 -1.3126 -2055.0493 -3689.9971)" gradientUnits="userSpaceOnUse">
					<stop  offset="0" style="stop-color:#FFFFFF"/>
					<stop  offset="1" style="stop-color:#FFFFFF;stop-opacity:0"/>
				</radialGradient>
				<path class="st1" d="M48.88,37.85c-6.49-5.26-9.02-13.27-5.66-17.9c3.36-4.62,11.35-4.1,17.84,1.15
					c6.49,5.26,9.02,13.28,5.66,17.9C63.35,43.63,55.37,43.11,48.88,37.85z"/>
				
					<radialGradient id="SVGID_3_" cx="-2980.6667" cy="2924.5159" r="7.0035" gradientTransform="matrix(-1.1717 -1.1007 0.222 -0.7283 -4110.9922 -1097.0844)" gradientUnits="userSpaceOnUse">
					<stop  offset="0" style="stop-color:#FFFFFF"/>
					<stop  offset="1" style="stop-color:#FFFFFF;stop-opacity:0"/>
				</radialGradient>
				<path class="st2" d="M22.49,46.1c0.86-2.82,5.23-1.65,9.76,2.61c4.53,4.26,7.51,9.99,6.65,12.81c-0.86,2.82-5.23,1.65-9.76-2.61
					C24.61,54.65,21.63,48.91,22.49,46.1z"/>
			</g>
			<radialGradient id="SVGID_4_" cx="45.5651" cy="1.5608" r="8.4133" gradientUnits="userSpaceOnUse">
				<stop  offset="0" style="stop-color:#FFF8C7"/>
				<stop  offset="0.1559" style="stop-color:#FFE436"/>
				<stop  offset="1" style="stop-color:#FE761C"/>
			</radialGradient>
			<path class="st3" d="M48.09,7.47c0,1.71-1.38,3.09-3.09,3.09l0,0c-1.71,0-3.09-1.38-3.09-3.09V3.09C41.91,1.38,43.3,0,45,0l0,0
				c1.71,0,3.09,1.38,3.09,3.09V7.47z"/>
			
				<radialGradient id="SVGID_5_" cx="453.9691" cy="-236.061" r="8.4132" gradientTransform="matrix(0.7071 -0.7071 0.7071 0.7071 -136.198 500.4805)" gradientUnits="userSpaceOnUse">
				<stop  offset="0" style="stop-color:#FFF8C7"/>
				<stop  offset="0.1559" style="stop-color:#FFE436"/>
				<stop  offset="1" style="stop-color:#FE761C"/>
			</radialGradient>
			<path class="st4" d="M23.85,14.95c1.21,1.21,1.21,3.16,0,4.37l0,0c-1.21,1.21-3.16,1.21-4.37,0l-3.1-3.1
				c-1.21-1.21-1.21-3.16,0-4.37l0,0c1.21-1.21,3.16-1.21,4.37,0L23.85,14.95z"/>
			
				<radialGradient id="SVGID_6_" cx="910.6896" cy="-115.4876" r="8.4133" gradientTransform="matrix(0 -1 1 0 121.5769 950.6016)" gradientUnits="userSpaceOnUse">
				<stop  offset="0" style="stop-color:#FFF8C7"/>
				<stop  offset="0.1559" style="stop-color:#FFE436"/>
				<stop  offset="1" style="stop-color:#FE761C"/>
			</radialGradient>
			<path class="st5" d="M12,37.39c1.71,0,3.09,1.38,3.09,3.09l0,0c0,1.71-1.38,3.09-3.09,3.09H7.62c-1.71,0-3.09-1.38-3.09-3.09l0,0
				c0-1.71,1.38-3.09,3.09-3.09H12z"/>
			
				<radialGradient id="SVGID_7_" cx="1148.4752" cy="292.9141" r="8.4131" gradientTransform="matrix(-0.7071 -0.7071 0.7071 -0.7071 622.0566 1086.7986)" gradientUnits="userSpaceOnUse">
				<stop  offset="0" style="stop-color:#FFF8C7"/>
				<stop  offset="0.1559" style="stop-color:#FFE436"/>
				<stop  offset="1" style="stop-color:#FE761C"/>
			</radialGradient>
			<path class="st6" d="M19.48,61.62c1.21-1.21,3.16-1.21,4.37,0l0,0c1.21,1.21,1.21,3.16,0,4.37l-3.1,3.1
				c-1.21,1.21-3.16,1.21-4.37,0l0,0c-1.21-1.21-1.21-3.16,0-4.37L19.48,61.62z"/>
			
				<radialGradient id="SVGID_8_" cx="1027.7354" cy="749.6381" r="8.4135" gradientTransform="matrix(-1 0 0 -1 1072.1758 829.0254)" gradientUnits="userSpaceOnUse">
				<stop  offset="0" style="stop-color:#FFF8C7"/>
				<stop  offset="0.1559" style="stop-color:#FFE436"/>
				<stop  offset="1" style="stop-color:#FE761C"/>
			</radialGradient>
			<path class="st7" d="M41.91,73.48c0-1.71,1.38-3.09,3.09-3.09l0,0c1.71,0,3.09,1.38,3.09,3.09l0,4.38c0,1.71-1.38,3.09-3.09,3.09
				l0,0c-1.71,0-3.09-1.38-3.09-3.09L41.91,73.48z"/>
			
				<radialGradient id="SVGID_9_" cx="619.4978" cy="987.4243" r="8.4133" gradientTransform="matrix(-0.7071 0.7071 -0.7071 -0.7071 1208.3767 328.5479)" gradientUnits="userSpaceOnUse">
				<stop  offset="0" style="stop-color:#FFF8C7"/>
				<stop  offset="0.1559" style="stop-color:#FFE436"/>
				<stop  offset="1" style="stop-color:#FE761C"/>
			</radialGradient>
			<path class="st8" d="M66.15,65.99c-1.21-1.21-1.21-3.16,0-4.37l0,0c1.21-1.21,3.16-1.21,4.37,0l3.1,3.1
				c1.21,1.21,1.21,3.16,0,4.37l0,0c-1.21,1.21-3.16,1.21-4.37,0L66.15,65.99z"/>
			
				<radialGradient id="SVGID_10_" cx="162.6091" cy="866.6885" r="8.4125" gradientTransform="matrix(0 1 -1 0 950.6055 -121.5742)" gradientUnits="userSpaceOnUse">
				<stop  offset="0" style="stop-color:#FFF8C7"/>
				<stop  offset="0.1559" style="stop-color:#FFE436"/>
				<stop  offset="1" style="stop-color:#FE761C"/>
			</radialGradient>
			<path class="st9" d="M78,43.56c-1.71,0-3.09-1.38-3.09-3.09l0,0c0-1.71,1.38-3.09,3.09-3.09h4.38c1.71,0,3.09,1.38,3.09,3.09l0,0
				c0,1.71-1.38,3.09-3.09,3.09H78z"/>
			
				<radialGradient id="SVGID_11_" cx="-75.0109" cy="458.4492" r="8.4132" gradientTransform="matrix(0.7071 0.7071 -0.7071 0.7071 450.126 -257.7751)" gradientUnits="userSpaceOnUse">
				<stop  offset="0" style="stop-color:#FFF8C7"/>
				<stop  offset="0.1559" style="stop-color:#FFE436"/>
				<stop  offset="1" style="stop-color:#FE761C"/>
			</radialGradient>
			<path class="st10" d="M70.52,19.32c-1.21,1.21-3.16,1.21-4.37,0l0,0c-1.21-1.21-1.21-3.16,0-4.37l3.1-3.1
				c1.21-1.21,3.16-1.21,4.37,0l0,0c1.21,1.21,1.21,3.16,0,4.37L70.52,19.32z"/>
		</g>
		<g>
			
				<radialGradient id="SVGID_12_" cx="1369.0737" cy="50.5361" r="43.7615" gradientTransform="matrix(-1 0 0 1 1385.1875 0)" gradientUnits="userSpaceOnUse">
				<stop  offset="0" style="stop-color:#FFFFFF"/>
				<stop  offset="0.198" style="stop-color:#D9F7FF"/>
				<stop  offset="1" style="stop-color:#89C0F5"/>
			</radialGradient>
			<path class="st11" d="M22.72,45.7c8.3,0,15.26,5.74,17.13,13.47c1.51-0.73,3.19-1.15,4.98-1.15c6.33,0,11.47,5.13,11.47,11.47
				c0,6.33-5.13,11.47-11.47,11.47H22.72c-9.73,0-17.63-7.89-17.63-17.62C5.1,53.59,12.99,45.7,22.72,45.7z"/>
			<radialGradient id="SVGID_13_" cx="31.7681" cy="48.9468" r="43.7854" gradientUnits="userSpaceOnUse">
				<stop  offset="0" style="stop-color:#FFE436"/>
				<stop  offset="0.0198" style="stop-color:#FFDF35;stop-opacity:0.9742"/>
				<stop  offset="0.1739" style="stop-color:#FFB92C;stop-opacity:0.7739"/>
				<stop  offset="0.3276" style="stop-color:#FE9C25;stop-opacity:0.5739"/>
				<stop  offset="0.4791" style="stop-color:#FE8720;stop-opacity:0.3768"/>
				<stop  offset="0.6274" style="stop-color:#FE7A1D;stop-opacity:0.1839"/>
				<stop  offset="0.7688" style="stop-color:#FE761C;stop-opacity:0"/>
			</radialGradient>
			<path class="st12" d="M22.72,45.7c8.3,0,15.26,5.74,17.13,13.47c1.51-0.73,3.19-1.15,4.98-1.15c6.33,0,11.47,5.13,11.47,11.47
				c0,6.33-5.13,11.47-11.47,11.47H22.72c-9.73,0-17.63-7.89-17.63-17.62C5.1,53.59,12.99,45.7,22.72,45.7z"/>
			
				<radialGradient id="SVGID_14_" cx="528.78" cy="-2389.6177" r="5.1352" gradientTransform="matrix(0.8392 1.1536 1.6186 -1.3126 3440.2368 -3689.9971)" gradientUnits="userSpaceOnUse">
				<stop  offset="0" style="stop-color:#FFFFFF"/>
				<stop  offset="1" style="stop-color:#FFFFFF;stop-opacity:0"/>
			</radialGradient>
			<path class="st13" d="M20.46,62.54c4.59-3.72,6.38-9.39,4-12.66c-2.38-3.27-8.03-2.91-12.62,0.81c-4.59,3.72-6.38,9.4-4,12.66
				C10.22,66.63,15.87,66.26,20.46,62.54z"/>
			
				<radialGradient id="SVGID_15_" cx="543.9406" cy="-2382.0107" r="2.8222" gradientTransform="matrix(0.8392 1.1536 1.6186 -1.3126 3440.2368 -3689.9971)" gradientUnits="userSpaceOnUse">
				<stop  offset="0" style="stop-color:#FFFFFF"/>
				<stop  offset="1" style="stop-color:#FFFFFF;stop-opacity:0"/>
			</radialGradient>
			<path class="st14" d="M43.56,67.38c2.52-2.05,3.51-5.16,2.2-6.96c-1.31-1.8-4.41-1.6-6.94,0.45c-2.52,2.05-3.5,5.16-2.2,6.96
				C37.93,69.62,41.04,69.42,43.56,67.38z"/>
			
				<radialGradient id="SVGID_16_" cx="1508.049" cy="117.088" r="2.9509" gradientTransform="matrix(-0.7056 -0.4583 -1.3993 1.8312 1278.5082 551.2444)" gradientUnits="userSpaceOnUse">
				<stop  offset="0" style="stop-color:#FFFFFF"/>
				<stop  offset="1" style="stop-color:#FFFFFF;stop-opacity:0"/>
			</radialGradient>
			<path class="st15" d="M49.15,71.83c2.78-2.81,5.64-3.9,6.4-2.45c0.76,1.45-0.87,4.9-3.64,7.71c-2.78,2.8-5.64,3.9-6.4,2.45
				C44.75,78.09,46.38,74.64,49.15,71.83z"/>
		</g>
		<g>
			
				<radialGradient id="SVGID_17_" cx="-804.6253" cy="29.2333" r="34.7034" gradientTransform="matrix(1 0 0 1 891.3594 0)" gradientUnits="userSpaceOnUse">
				<stop  offset="0" style="stop-color:#FFFFFF"/>
				<stop  offset="0.198" style="stop-color:#D9F7FF"/>
				<stop  offset="1" style="stop-color:#89C0F5"/>
			</radialGradient>
			<path class="st16" d="M81.49,25.4c-6.58,0-12.1,4.55-13.58,10.68c-1.2-0.58-2.53-0.91-3.95-0.91c-5.02,0-9.09,4.07-9.09,9.09
				c0,5.02,4.07,9.09,9.09,9.09h17.53c7.72,0,13.98-6.26,13.98-13.98C95.47,31.65,89.21,25.4,81.49,25.4z"/>
			<radialGradient id="SVGID_18_" cx="56.6125" cy="36.3436" r="40.362" gradientUnits="userSpaceOnUse">
				<stop  offset="0" style="stop-color:#FFE436"/>
				<stop  offset="0.0198" style="stop-color:#FFDF35;stop-opacity:0.9742"/>
				<stop  offset="0.1739" style="stop-color:#FFB92C;stop-opacity:0.7739"/>
				<stop  offset="0.3276" style="stop-color:#FE9C25;stop-opacity:0.5739"/>
				<stop  offset="0.4791" style="stop-color:#FE8720;stop-opacity:0.3768"/>
				<stop  offset="0.6274" style="stop-color:#FE7A1D;stop-opacity:0.1839"/>
				<stop  offset="0.7688" style="stop-color:#FE761C;stop-opacity:0"/>
			</radialGradient>
			<path class="st17" d="M81.49,25.4c-6.58,0-12.1,4.55-13.58,10.68c-1.2-0.58-2.53-0.91-3.95-0.91c-5.02,0-9.09,4.07-9.09,9.09
				c0,5.02,4.07,9.09,9.09,9.09h17.53c7.72,0,13.98-6.26,13.98-13.98C95.47,31.65,89.21,25.4,81.49,25.4z"/>
			
				<radialGradient id="SVGID_19_" cx="1477.553" cy="-1538.5852" r="4.0723" gradientTransform="matrix(-0.8392 1.1536 -1.6186 -1.3126 -1163.6899 -3689.9971)" gradientUnits="userSpaceOnUse">
				<stop  offset="0" style="stop-color:#FFFFFF"/>
				<stop  offset="1" style="stop-color:#FFFFFF;stop-opacity:0"/>
			</radialGradient>
			<path class="st18" d="M83.28,38.75c-3.64-2.95-5.06-7.45-3.17-10.04c1.89-2.6,6.37-2.3,10.01,0.65
				c3.64,2.95,5.06,7.45,3.17,10.04C91.41,42,86.92,41.7,83.28,38.75z"/>
			
				<radialGradient id="SVGID_20_" cx="1489.5751" cy="-1532.5526" r="2.2383" gradientTransform="matrix(-0.8392 1.1536 -1.6186 -1.3126 -1163.6899 -3689.9971)" gradientUnits="userSpaceOnUse">
				<stop  offset="0" style="stop-color:#FFFFFF"/>
				<stop  offset="1" style="stop-color:#FFFFFF;stop-opacity:0"/>
			</radialGradient>
			<path class="st19" d="M64.97,42.59c-2-1.62-2.78-4.09-1.74-5.52c1.04-1.43,3.5-1.27,5.5,0.35c2,1.62,2.78,4.1,1.74,5.52
				C69.43,44.37,66.97,44.21,64.97,42.59z"/>
			
				<radialGradient id="SVGID_21_" cx="-984.3083" cy="-373.2909" r="2.3402" gradientTransform="matrix(0.7056 -0.4583 1.3993 1.8312 1276.3373 280.6307)" gradientUnits="userSpaceOnUse">
				<stop  offset="0" style="stop-color:#FFFFFF"/>
				<stop  offset="1" style="stop-color:#FFFFFF;stop-opacity:0"/>
			</radialGradient>
			<path class="st20" d="M60.53,46.12c-2.2-2.23-4.47-3.1-5.08-1.95c-0.6,1.15,0.69,3.89,2.89,6.11c2.2,2.22,4.47,3.09,5.08,1.94
				C64.02,51.08,62.73,48.35,60.53,46.12z"/>
		</g>
	</g>
	<g>
		<g>
			
				<radialGradient id="SVGID_22_" cx="-248.0017" cy="15.321" r="10.6846" gradientTransform="matrix(0.866 0.5 -0.5 0.866 241.0088 207.5015)" gradientUnits="userSpaceOnUse">
				<stop  offset="0" style="stop-color:#D4F6FF"/>
				<stop  offset="0.198" style="stop-color:#D9F7FF"/>
				<stop  offset="1" style="stop-color:#89C0F5"/>
			</radialGradient>
			<path class="st21" d="M24.52,97.78c-1.23,2.12-3.94,2.85-6.07,1.62c-2.12-1.23-2.85-3.94-1.62-6.07
				c1.23-2.12,8.81-6.38,8.81-6.38S25.75,95.66,24.52,97.78z"/>
			
				<radialGradient id="SVGID_23_" cx="1220.8041" cy="-1749.3331" r="1.6738" gradientTransform="matrix(-1.3036 0.5794 -0.7454 -1.946 306.6301 -4015.4641)" gradientUnits="userSpaceOnUse">
				<stop  offset="0" style="stop-color:#FFFFFF"/>
				<stop  offset="1" style="stop-color:#FFFFFF;stop-opacity:0"/>
			</radialGradient>
			<path class="st22" d="M16.96,97.04c-0.69-1.8-0.27-3.69,0.93-4.23c1.2-0.54,2.74,0.49,3.43,2.29c0.69,1.8,0.27,3.69-0.93,4.23
				C19.18,99.86,17.65,98.84,16.96,97.04z"/>
		</g>
		<g>
			
				<radialGradient id="SVGID_24_" cx="-231.8225" cy="5.9786" r="10.6846" gradientTransform="matrix(0.866 0.5 -0.5 0.866 241.0088 207.5015)" gradientUnits="userSpaceOnUse">
				<stop  offset="0" style="stop-color:#D4F6FF"/>
				<stop  offset="0.198" style="stop-color:#D9F7FF"/>
				<stop  offset="1" style="stop-color:#89C0F5"/>
			</radialGradient>
			<path class="st23" d="M43.21,97.78c-1.23,2.12-3.94,2.85-6.07,1.62c-2.12-1.23-2.85-3.94-1.63-6.07
				c1.23-2.12,8.81-6.38,8.81-6.38S44.43,95.66,43.21,97.78z"/>
			
				<radialGradient id="SVGID_25_" cx="1208.5573" cy="-1752.9794" r="1.6733" gradientTransform="matrix(-1.3036 0.5794 -0.7454 -1.946 306.6301 -4015.4641)" gradientUnits="userSpaceOnUse">
				<stop  offset="0" style="stop-color:#FFFFFF"/>
				<stop  offset="1" style="stop-color:#FFFFFF;stop-opacity:0"/>
			</radialGradient>
			<path class="st24" d="M35.64,97.04c-0.69-1.8-0.27-3.69,0.93-4.23c1.2-0.54,2.74,0.49,3.43,2.29c0.69,1.8,0.27,3.69-0.93,4.23
				C37.87,99.86,36.33,98.84,35.64,97.04z"/>
		</g>
		<g>
			
				<radialGradient id="SVGID_26_" cx="-215.6415" cy="-3.3636" r="10.6844" gradientTransform="matrix(0.866 0.5 -0.5 0.866 241.0088 207.5015)" gradientUnits="userSpaceOnUse">
				<stop  offset="0" style="stop-color:#D4F6FF"/>
				<stop  offset="0.198" style="stop-color:#D9F7FF"/>
				<stop  offset="1" style="stop-color:#89C0F5"/>
			</radialGradient>
			<path class="st25" d="M61.89,97.78c-1.23,2.12-3.94,2.85-6.07,1.62c-2.12-1.23-2.85-3.94-1.63-6.07
				c1.23-2.12,8.81-6.38,8.81-6.38S63.12,95.66,61.89,97.78z"/>
			
				<radialGradient id="SVGID_27_" cx="1196.3098" cy="-1756.626" r="1.6733" gradientTransform="matrix(-1.3036 0.5794 -0.7454 -1.946 306.6301 -4015.4641)" gradientUnits="userSpaceOnUse">
				<stop  offset="0" style="stop-color:#FFFFFF"/>
				<stop  offset="1" style="stop-color:#FFFFFF;stop-opacity:0"/>
			</radialGradient>
			<path class="st26" d="M54.33,97.04c-0.69-1.8-0.27-3.69,0.93-4.23c1.2-0.54,2.74,0.49,3.43,2.29c0.69,1.8,0.27,3.69-0.93,4.23
				C56.55,99.86,55.02,98.84,54.33,97.04z"/>
		</g>
		<g>
			
				<radialGradient id="SVGID_28_" cx="-199.4614" cy="-12.7054" r="10.6844" gradientTransform="matrix(0.866 0.5 -0.5 0.866 241.0088 207.5015)" gradientUnits="userSpaceOnUse">
				<stop  offset="0" style="stop-color:#D4F6FF"/>
				<stop  offset="0.198" style="stop-color:#D9F7FF"/>
				<stop  offset="1" style="stop-color:#89C0F5"/>
			</radialGradient>
			<path class="st27" d="M80.57,97.78c-1.23,2.12-3.94,2.85-6.07,1.62c-2.12-1.23-2.85-3.94-1.63-6.07
				c1.23-2.12,8.81-6.38,8.81-6.38S81.8,95.66,80.57,97.78z"/>
			
				<radialGradient id="SVGID_29_" cx="1184.063" cy="-1760.2723" r="1.6733" gradientTransform="matrix(-1.3036 0.5794 -0.7454 -1.946 306.6301 -4015.4641)" gradientUnits="userSpaceOnUse">
				<stop  offset="0" style="stop-color:#FFFFFF"/>
				<stop  offset="1" style="stop-color:#FFFFFF;stop-opacity:0"/>
			</radialGradient>
			<path class="st28" d="M73.01,97.04c-0.69-1.8-0.27-3.69,0.93-4.23c1.2-0.54,2.74,0.49,3.43,2.29c0.69,1.8,0.27,3.69-0.93,4.23
				C75.23,99.86,73.7,98.84,73.01,97.04z"/>
		</g>
	</g>
</g>
</svg>
