<?xml version="1.0" encoding="utf-8"?>
<!-- Generator: Adobe Illustrator 25.0.0, SVG Export Plug-In . SVG Version: 6.00 Build 0)  -->
<svg version="1.1" id="Слой_1" xmlns="http://www.w3.org/2000/svg" xmlns:xlink="http://www.w3.org/1999/xlink" x="0px" y="0px"
	 viewBox="0 0 100 100" style="enable-background:new 0 0 100 100;" xml:space="preserve">
<style type="text/css">
	.st0{fill:url(#SVGID_1_);}
	.st1{fill:#B0B1B6;}
	.st2{fill:url(#SVGID_2_);}
	.st3{opacity:0.4;fill:url(#SVGID_3_);}
	.st4{fill:url(#SVGID_4_);}
	.st5{opacity:0.5;fill:url(#SVGID_5_);}
	.st6{opacity:0.3;fill:url(#SVGID_6_);}
	.st7{opacity:0.2;fill:url(#SVGID_7_);}
	.st8{fill:url(#SVGID_8_);}
	.st9{fill:url(#SVGID_9_);}
	.st10{fill:url(#SVGID_10_);}
	.st11{fill:url(#SVGID_11_);}
	.st12{fill:url(#SVGID_12_);}
	.st13{fill:url(#SVGID_13_);}
</style>
<g>
	<g>
		<g>
			
				<radialGradient id="SVGID_1_" cx="-147.3111" cy="18.3885" r="66.4913" gradientTransform="matrix(-1 0 0 1 -74.3271 0)" gradientUnits="userSpaceOnUse">
				<stop  offset="0" style="stop-color:#FCFCFC"/>
				<stop  offset="0.1559" style="stop-color:#F1EDF5"/>
				<stop  offset="1" style="stop-color:#9FA1A6"/>
			</radialGradient>
			<path class="st0" d="M29.95,40.35c0,19.34,15.68,35.02,35.03,35.02S100,59.69,100,40.35c0-19.34-15.68-35.03-35.03-35.03
				S29.95,21.01,29.95,40.35z"/>
			<g>
				<path class="st1" d="M40.5,46.55c3.29-0.3,5.64-4.03,5.26-8.34c-0.38-4.31-3.37-7.56-6.66-7.27c-3.29,0.3-5.64,4.03-5.25,8.34
					C34.23,43.59,37.21,46.84,40.5,46.55z"/>
				<path class="st1" d="M37.65,49.68c-1.97,1.04-2.47,3.97-1.12,6.55c1.36,2.58,4.05,3.83,6.03,2.8c1.97-1.03,2.47-3.97,1.11-6.55
					C42.32,49.9,39.62,48.65,37.65,49.68z"/>
				<path class="st1" d="M45.46,46.57c-1.17,0.61-1.46,2.34-0.66,3.87c0.8,1.52,2.39,2.27,3.56,1.66c1.16-0.61,1.46-2.34,0.66-3.87
					C48.22,46.7,46.62,45.96,45.46,46.57z"/>
				<path class="st1" d="M97.32,41.62c-0.6-4.29-3.75-7.38-7.02-6.92c-3.27,0.46-5.43,4.31-4.83,8.59c0.6,4.28,3.75,7.38,7.02,6.92
					C95.77,49.75,97.93,45.9,97.32,41.62z"/>
				<path class="st1" d="M93,31.42c1.92-1.13,2.27-4.09,0.78-6.6c-1.48-2.51-4.24-3.62-6.16-2.49c-1.91,1.13-2.27,4.09-0.78,6.6
					C88.32,31.44,91.08,32.55,93,31.42z"/>
				<path class="st1" d="M85.81,31.03c-0.88-1.48-2.5-2.14-3.64-1.47c-1.13,0.67-1.34,2.41-0.46,3.9c0.88,1.49,2.51,2.14,3.64,1.47
					C86.48,34.25,86.69,32.51,85.81,31.03z"/>
			</g>
			<g>
				
					<radialGradient id="SVGID_2_" cx="1082.182" cy="-1879.3417" r="9.9808" gradientTransform="matrix(-0.8392 1.1536 -1.6186 -1.3126 -2055.0493 -3689.9971)" gradientUnits="userSpaceOnUse">
					<stop  offset="0" style="stop-color:#FFFFFF"/>
					<stop  offset="1" style="stop-color:#FFFFFF;stop-opacity:0"/>
				</radialGradient>
				<path class="st2" d="M70.31,36.75c-8.92-7.24-12.4-18.26-7.78-24.61c4.63-6.36,15.61-5.65,24.53,1.59
					c8.92,7.24,12.4,18.26,7.77,24.61C90.21,44.7,79.23,43.98,70.31,36.75z"/>
				
					<radialGradient id="SVGID_3_" cx="-2991.343" cy="2933.9502" r="9.6317" gradientTransform="matrix(-1.1717 -1.1007 0.222 -0.7283 -4110.9922 -1097.0844)" gradientUnits="userSpaceOnUse">
					<stop  offset="0" style="stop-color:#FFFFFF"/>
					<stop  offset="1" style="stop-color:#FFFFFF;stop-opacity:0"/>
				</radialGradient>
				<path class="st3" d="M34.02,48.09c1.18-3.87,7.19-2.27,13.42,3.59c6.23,5.86,10.32,13.74,9.15,17.62
					c-1.18,3.87-7.18,2.27-13.42-3.59C36.93,59.85,32.84,51.96,34.02,48.09z"/>
			</g>
		</g>
		<g>
			
				<radialGradient id="SVGID_4_" cx="1366.2478" cy="36.2057" r="75.2267" gradientTransform="matrix(-1 0 0 1 1385.1875 0)" gradientUnits="userSpaceOnUse">
				<stop  offset="0" style="stop-color:#BAD0D6"/>
				<stop  offset="0.198" style="stop-color:#9BBAC2"/>
				<stop  offset="1" style="stop-color:#5D8BB8"/>
			</radialGradient>
			<path class="st4" d="M30.3,27.89c14.27,0,26.23,9.87,29.44,23.16c2.59-1.26,5.49-1.98,8.57-1.98c10.89,0,19.71,8.82,19.71,19.71
				c0,10.89-8.82,19.71-19.71,19.71H30.3C13.56,88.48,0,74.92,0,58.19C0,41.45,13.56,27.89,30.3,27.89z"/>
			
				<radialGradient id="SVGID_5_" cx="524.6127" cy="-2385.6931" r="8.827" gradientTransform="matrix(0.8392 1.1536 1.6186 -1.3126 3440.2368 -3689.9971)" gradientUnits="userSpaceOnUse">
				<stop  offset="0" style="stop-color:#FFFFFF"/>
				<stop  offset="1" style="stop-color:#FFFFFF;stop-opacity:0"/>
			</radialGradient>
			<path class="st5" d="M26.42,56.84c7.89-6.4,10.97-16.14,6.88-21.77c-4.09-5.63-13.81-4.99-21.7,1.4
				c-7.89,6.4-10.96,16.15-6.88,21.77C8.81,63.87,18.53,63.24,26.42,56.84z"/>
			
				<radialGradient id="SVGID_6_" cx="550.673" cy="-2372.6169" r="4.8515" gradientTransform="matrix(0.8392 1.1536 1.6186 -1.3126 3440.2368 -3689.9971)" gradientUnits="userSpaceOnUse">
				<stop  offset="0" style="stop-color:#FFFFFF"/>
				<stop  offset="1" style="stop-color:#FFFFFF;stop-opacity:0"/>
			</radialGradient>
			<path class="st6" d="M66.12,65.15c4.33-3.52,6.03-8.87,3.78-11.96c-2.25-3.09-7.58-2.75-11.93,0.77
				c-4.33,3.52-6.03,8.87-3.78,11.96C56.44,69.02,61.78,68.67,66.12,65.15z"/>
			
				<radialGradient id="SVGID_7_" cx="1475.7162" cy="114.9227" r="5.0728" gradientTransform="matrix(-0.7056 -0.4583 -1.3993 1.8312 1280.2366 543.2623)" gradientUnits="userSpaceOnUse">
				<stop  offset="0" style="stop-color:#FFFFFF"/>
				<stop  offset="1" style="stop-color:#FFFFFF;stop-opacity:0"/>
			</radialGradient>
			<path class="st7" d="M75.74,72.82c4.77-4.82,9.69-6.71,11.01-4.21c1.31,2.49-1.5,8.43-6.27,13.25c-4.77,4.82-9.7,6.71-11,4.21
				C68.17,83.57,70.97,77.64,75.74,72.82z"/>
		</g>
	</g>
	<g>
		<g>
			
				<radialGradient id="SVGID_8_" cx="-246.8218" cy="7.8069" r="12.648" gradientTransform="matrix(0.866 0.5 -0.5 0.866 241.0088 207.5015)" gradientUnits="userSpaceOnUse">
				<stop  offset="0" style="stop-color:#D4F6FF"/>
				<stop  offset="0.198" style="stop-color:#D9F7FF"/>
				<stop  offset="1" style="stop-color:#89C0F5"/>
			</radialGradient>
			<path class="st8" d="M30.4,92.05c-1.45,2.51-4.67,3.37-7.18,1.92c-2.51-1.45-3.37-4.67-1.92-7.18
				c1.45-2.51,10.43-7.55,10.43-7.55S31.85,89.53,30.4,92.05z"/>
			
				<radialGradient id="SVGID_9_" cx="1216.0856" cy="-1747.6315" r="1.9814" gradientTransform="matrix(-1.3036 0.5794 -0.7454 -1.946 306.6301 -4015.4641)" gradientUnits="userSpaceOnUse">
				<stop  offset="0" style="stop-color:#FFFFFF"/>
				<stop  offset="1" style="stop-color:#FFFFFF;stop-opacity:0"/>
			</radialGradient>
			<path class="st9" d="M21.44,91.17c-0.81-2.13-0.32-4.37,1.11-5c1.43-0.63,3.24,0.58,4.06,2.71c0.81,2.13,0.32,4.37-1.11,5
				C24.07,94.52,22.26,93.3,21.44,91.17z"/>
		</g>
		<g>
			
				<radialGradient id="SVGID_10_" cx="-227.6694" cy="-3.2522" r="12.6478" gradientTransform="matrix(0.866 0.5 -0.5 0.866 241.0088 207.5015)" gradientUnits="userSpaceOnUse">
				<stop  offset="0" style="stop-color:#D4F6FF"/>
				<stop  offset="0.198" style="stop-color:#D9F7FF"/>
				<stop  offset="1" style="stop-color:#89C0F5"/>
			</radialGradient>
			<path class="st10" d="M52.51,92.05c-1.45,2.51-4.67,3.37-7.18,1.92c-2.51-1.45-3.38-4.67-1.93-7.18
				c1.45-2.51,10.43-7.55,10.43-7.55S53.96,89.53,52.51,92.05z"/>
			
				<radialGradient id="SVGID_11_" cx="1201.5884" cy="-1751.9479" r="1.9808" gradientTransform="matrix(-1.3036 0.5794 -0.7454 -1.946 306.6301 -4015.4641)" gradientUnits="userSpaceOnUse">
				<stop  offset="0" style="stop-color:#FFFFFF"/>
				<stop  offset="1" style="stop-color:#FFFFFF;stop-opacity:0"/>
			</radialGradient>
			<path class="st11" d="M43.56,91.17c-0.81-2.13-0.32-4.37,1.11-5c1.43-0.63,3.24,0.58,4.06,2.71c0.82,2.13,0.32,4.37-1.11,5
				C46.19,94.52,44.37,93.3,43.56,91.17z"/>
		</g>
		<g>
			
				<radialGradient id="SVGID_12_" cx="-208.515" cy="-14.3112" r="12.6478" gradientTransform="matrix(0.866 0.5 -0.5 0.866 241.0088 207.5015)" gradientUnits="userSpaceOnUse">
				<stop  offset="0" style="stop-color:#D4F6FF"/>
				<stop  offset="0.198" style="stop-color:#D9F7FF"/>
				<stop  offset="1" style="stop-color:#89C0F5"/>
			</radialGradient>
			<path class="st12" d="M74.63,92.05c-1.45,2.51-4.67,3.37-7.18,1.92c-2.51-1.45-3.38-4.67-1.93-7.18
				c1.45-2.51,10.43-7.55,10.43-7.55S76.08,89.53,74.63,92.05z"/>
			
				<radialGradient id="SVGID_13_" cx="1187.0902" cy="-1756.2645" r="1.9808" gradientTransform="matrix(-1.3036 0.5794 -0.7454 -1.946 306.6301 -4015.4641)" gradientUnits="userSpaceOnUse">
				<stop  offset="0" style="stop-color:#FFFFFF"/>
				<stop  offset="1" style="stop-color:#FFFFFF;stop-opacity:0"/>
			</radialGradient>
			<path class="st13" d="M65.68,91.17c-0.81-2.13-0.32-4.37,1.11-5c1.43-0.63,3.24,0.58,4.06,2.71c0.82,2.13,0.32,4.37-1.11,5
				C68.31,94.52,66.49,93.3,65.68,91.17z"/>
		</g>
	</g>
</g>
</svg>
