<svg id="Слой_1" data-name="Слой 1" xmlns="http://www.w3.org/2000/svg" xmlns:xlink="http://www.w3.org/1999/xlink" viewBox="0 0 87.86 100"><defs><style>.cls-1{fill:url(#radial-gradient);}</style><radialGradient id="radial-gradient" cx="78.68" cy="30.05" r="85.28" gradientUnits="userSpaceOnUse"><stop offset="0" stop-color="#28cbe9"/><stop offset="1" stop-color="#0a4fbb"/></radialGradient></defs><path class="cls-1" d="M91.58,68.59l-9.14-5.28,2.83-1.64a4.69,4.69,0,1,0-4.69-8.13l-7.53,4.34-7-4a15.88,15.88,0,0,0,0-7.75l7-4,7.52,4.34a4.69,4.69,0,1,0,4.7-8.12l-2.84-1.64,9.15-5.28a4.69,4.69,0,0,0-4.69-8.13l-9.15,5.28V25.29a4.7,4.7,0,0,0-4.7-4.69h0a4.69,4.69,0,0,0-4.69,4.69V34L61.4,38a16.48,16.48,0,0,0-6.71-3.88v-8l7.53-4.34a4.7,4.7,0,1,0-4.7-8.13l-2.83,1.63V4.69a4.69,4.69,0,1,0-9.38,0V15.25l-2.84-1.63a4.69,4.69,0,1,0-4.69,8.13l7.53,4.34v8A16.39,16.39,0,0,0,38.6,38l-7-4V25.29a4.7,4.7,0,0,0-9.39,0v3.27l-9.15-5.28a4.69,4.69,0,1,0-4.69,8.13l9.14,5.28-2.83,1.63a4.69,4.69,0,0,0,2.35,8.76,4.62,4.62,0,0,0,2.34-.63L27,42.11l7,4a15.88,15.88,0,0,0,0,7.75l-6.95,4-7.52-4.34a4.7,4.7,0,1,0-4.7,8.13l2.83,1.63L8.42,68.59a4.69,4.69,0,1,0,4.69,8.13l9.14-5.28V74.7a4.7,4.7,0,1,0,9.39,0V66l7-4a16.65,16.65,0,0,0,6.7,3.89v8l-7.52,4.35a4.69,4.69,0,1,0,4.69,8.13l2.84-1.64V95.31a4.69,4.69,0,0,0,9.38,0V84.75l2.83,1.63a4.7,4.7,0,0,0,4.7-8.13L54.69,73.9v-8A16.39,16.39,0,0,0,61.4,62l6.95,4V74.7a4.7,4.7,0,1,0,9.39,0V71.43l9.15,5.29A4.69,4.69,0,0,0,93.3,75,4.68,4.68,0,0,0,91.58,68.59ZM50,57.19A7.19,7.19,0,1,1,57.19,50,7.2,7.2,0,0,1,50,57.19Z" transform="translate(-6.07 0)"/></svg>