<svg width="24" height="24" viewBox="0 0 24 24" fill="none" xmlns="http://www.w3.org/2000/svg">
<path d="M21.561 5.318L18.682 2.439C18.5428 2.29951 18.3774 2.18892 18.1953 2.11358C18.0132 2.03824 17.8181 1.99964 17.621 2C17.236 2 16.853 2.146 16.56 2.439L13 6H4C3.73478 6 3.48043 6.10536 3.29289 6.2929C3.10536 6.48043 3 6.73479 3 7V20C3 20.2652 3.10536 20.5196 3.29289 20.7071C3.48043 20.8946 3.73478 21 4 21H17C17.2652 21 17.5196 20.8946 17.7071 20.7071C17.8946 20.5196 18 20.2652 18 20V11L21.561 7.439C21.854 7.146 22 6.762 22 6.378C22 5.994 21.854 5.611 21.561 5.318ZM11.5 14.672L9.328 12.5L15.621 6.207L17.793 8.379L11.5 14.672ZM8.939 13.333L10.695 15.061L9 15L8.939 13.333ZM16 19H5V8H11L7.82 11.18C7.527 11.473 7.342 11.992 7.191 12.469C7.031 12.969 7 13.525 7 13.939V17H10.061C10.475 17 11.169 16.9 11.632 16.71C12.096 16.52 12.528 16.363 12.82 16.07L16 13V19ZM18.5 7.672L16.328 5.5L17.621 4.207L19.792 6.379L18.5 7.672Z" fill="black"/>
</svg>
